<?xml version="1.0" encoding="UTF-8" standalone="no"?>
<svg
   height="40"
   viewBox="0 -960 960 960"
   width="40"
   fill="#eac452"
   version="1.1"
   id="svg1"
   xmlns="http://www.w3.org/2000/svg"
   xmlns:svg="http://www.w3.org/2000/svg">
  <defs
     id="defs1" />
  <path
     d="m 562.97098,-680.19198 v -213.92507 q 0,-18.52467 12.06196,-30.37533 12.06195,-11.85065 29.90568,-11.85065 h 291.18162 q 17.82948,0 29.66359,11.85065 11.8341,11.85066 11.8341,30.37533 v 213.92507 q 0,18.53893 -12.06195,30.37534 -12.06196,11.85064 -29.89143,11.85064 H 604.46867 q -17.82947,0 -29.66359,-11.85064 -11.8341,-11.83641 -11.8341,-30.37534 z M 26.206767,-525.63431 v -369.48098 q 0,-17.52643 12.061957,-29.37709 12.061957,-11.85065 29.891438,-11.85065 H 359.35603 q 17.82948,0 29.66359,11.86491 11.83409,11.85066 11.83409,29.37708 v 369.48099 q 0,17.5407 -12.06195,29.39135 -12.06196,11.8364 -29.90569,11.8364 H 67.704456 q -17.829482,0 -29.663585,-11.85066 -11.834104,-11.86492 -11.834104,-29.39135 z M 562.97098,-64.898964 V -434.37996 q 0,-17.54069 12.06196,-29.39134 12.06195,-11.83641 29.90568,-11.83641 h 291.18162 q 17.82948,0 29.66359,11.85067 11.8341,11.86492 11.8341,29.39135 v 369.480985 q 0,17.526423 -12.06195,29.377087 -12.06196,11.850653 -29.89143,11.850653 H 604.46867 q -17.82947,0 -29.66359,-11.864923 -11.8341,-11.850654 -11.8341,-29.377076 z M 26.206767,-65.882951 V -279.80802 q 0,-18.53893 12.061957,-30.37534 Q 50.330681,-322.034 68.160162,-322.034 H 359.35603 q 17.82948,0 29.66359,11.85064 11.83409,11.83641 11.83409,30.37534 v 213.925069 q 0,18.524669 -12.06195,30.375333 -12.06196,11.850653 -29.90569,11.850653 H 67.704456 q -17.829482,0 -29.663585,-11.850653 Q 26.206767,-47.358282 26.206767,-65.882951 Z M 74.411873,-532.65057 H 352.6486 V -888.07049 H 74.411873 Z M 611.17609,-71.929502 H 889.41282 V -427.34943 H 611.17609 Z m 0,-614.309028 H 889.41282 V -888.07049 H 611.17609 Z M 74.411873,-71.929502 H 352.6486 V -273.76147 H 74.411873 Z M 352.6486,-532.65057 Z m 258.52749,-153.58796 z m 0,258.8891 z M 352.6486,-273.76147 Z"
     id="path1"
     style="fill:#a4ffff;fill-opacity:1;stroke:#11debb;stroke-width:23.1586;stroke-dasharray:none;stroke-opacity:0.984155" />
</svg>
