<?xml version="1.0" encoding="UTF-8" standalone="no"?>
<svg
   height="40"
   viewBox="0 -960 960 960"
   width="40"
   fill="#eac452"
   version="1.1"
   id="svg1"
   xmlns="http://www.w3.org/2000/svg"
   xmlns:svg="http://www.w3.org/2000/svg">
  <defs
     id="defs1" />
  <path
     d="m 10,-245.88 q 0,-43.49 22.22,-78.27 22.21,-34.79 60.48,-52.86 72.3,-32.66 136.07,-48.32 63.76,-15.67 130.64,-15.67 68.67,0 132.13,15.67 63.46,15.66 135.13,48 38.51,16.96 60.92,51.74 22.41,34.79 22.41,79.66 v 24.6 q 0,44.9 -31.1,75.45 -31.09,30.55 -75.57,30.55 H 116 q -43.5,0 -74.75,-30.55 Q 10,-176.43 10,-221.33 Z m 834.87,130.55 H 742.33 q 14.34,-23.67 24.34,-50.17 10,-26.5 10,-55.83 v -20.4 q 0,-62.6 -27.5,-112.77 -27.5,-50.17 -94.17,-86.5 58.33,8 116.17,24.83 57.83,16.84 97.5,36.17 37.66,19.67 59.83,54.97 22.17,35.31 22.17,81.36 v 22.34 q 0,44.9 -31.59,75.45 -31.58,30.55 -74.21,30.55 z M 359.67,-496 q -73.55,0 -120.94,-47.19 -47.4,-47.19 -47.4,-120.78 0,-73.58 47.43,-121.3 47.43,-47.73 120.94,-47.73 72.52,0 121.07,47.67 48.56,47.67 48.56,120.7 0,74.25 -48.31,121.44 Q 432.7,-496 359.67,-496 Z m 417.99,-168.64 q 0,73.26 -48.09,120.95 -48.09,47.69 -120.33,47.69 -13.45,0 -26.68,-2 -13.23,-2 -28.23,-7.33 27.34,-30.55 40.67,-70.76 13.33,-40.2 13.33,-88.04 0,-47.83 -13.43,-87.17 -13.44,-39.34 -40.57,-72.45 12.84,-4.75 27.16,-7 14.33,-2.25 27.52,-2.25 72.09,0 120.37,48.16 48.28,48.16 48.28,120.2 z M 116,-221.33 h 487.33 v -20 q 0,-13.58 -8.09,-26.31 -8.09,-12.73 -20.57,-17.36 -62,-28 -110,-38.67 -48,-10.66 -105.34,-10.66 -55.33,0 -105.33,10.66 -50,10.67 -110,38.67 -11.82,4.53 -19.91,17.29 -8.09,12.76 -8.09,26.38 z m 243.27,-368.34 q 32.16,0 54.28,-21.27 22.12,-21.27 22.12,-53.27 0,-32 -21.99,-53.56 -22,-21.56 -54.11,-21.56 -32.12,0 -53.35,21.47 -21.22,21.47 -21.22,53.35 0,32.17 21.19,53.5 21.19,21.34 53.08,21.34 z m 0.06,368.34 z m 0.67,-443 z"
     id="path1"
     style="fill:#93ffff;fill-opacity:1;stroke:#00d0d0;stroke-width:25.008;stroke-dasharray:none;stroke-opacity:1" />
</svg>
