<?xml version="1.0" encoding="UTF-8" standalone="no"?>
<svg
   height="40"
   viewBox="0 -960 960 960"
   width="40"
   fill="#eac452"
   version="1.1"
   id="svg1"
   xmlns="http://www.w3.org/2000/svg"
   xmlns:svg="http://www.w3.org/2000/svg">
  <defs
     id="defs1" />
  <path
     d="m 883.63861,-16.040376 q -11.06597,0 -21.03449,-3.891851 -9.97868,-3.891851 -17.8031,-13.154457 L 765.87596,-118.34046 H 328.25701 q -44.91422,0 -76.31354,-34.58188 -31.3993,-34.57076 -31.3993,-84.03062 v -74.50116 h 433.21899 q 44.2029,0 75.95787,-34.35948 31.75496,-34.35949 31.75496,-83.50801 v -293.55676 h 67.06648 q 45.18859,0 76.79112,34.58187 31.60255,34.57076 31.60255,84.03063 v 530.03676 q 0,27.865654 -16.73614,43.032754 -16.73614,15.15598 -36.56139,15.15598 z M 131.45753,-476.75772 156.52616,-503.44469 H 586.01585 V -821.09758 H 131.45753 Z m -53.521091,202.37627 q -21.674668,0 -38.268542,-15.98995 -16.604035,-15.98995 -16.604035,-43.32186 v -487.40432 q 0,-49.44875 31.602539,-84.03063 31.602541,-34.58187 76.791129,-34.58187 h 454.55832 q 44.2029,0 75.95787,34.58187 31.75496,34.58188 31.75496,84.03063 v 317.65289 q 0,49.14852 -31.75496,83.508 -31.75497,34.35949 -75.95787,34.35949 H 200.9323 l -86.06865,93.40442 q -8.59671,10.00762 -18.15876,13.89948 -9.572214,3.89185 -18.768451,3.89185 z m 53.521091,-229.06324 v -317.65289 z"
     id="path1"
     style="fill:#93ffff;fill-opacity:1;stroke:#00d0d0;stroke-width:25.2364;stroke-dasharray:none;stroke-opacity:1" />
</svg>
