<?xml version="1.0" encoding="UTF-8" standalone="no"?>
<svg
   height="40"
   viewBox="0 -960 960 960"
   width="40"
   fill="#eac452"
   version="1.1"
   id="svg1"
   xmlns="http://www.w3.org/2000/svg"
   xmlns:svg="http://www.w3.org/2000/svg">
  <defs
     id="defs1" />
  <path
     d="m 479.88,-754 q -21.9,0 -37.22,-15.41 -15.33,-15.41 -15.33,-37.26 v -86.66 q 0,-22.14 15.44,-37.74 15.44,-15.6 37.34,-15.6 21.89,0 37.56,15.6 15.66,15.6 15.66,37.74 v 86.66 q 0,21.85 -15.63,37.26 Q 502.07,-754 479.88,-754 Z M 674,-674 q -16,-14.33 -16,-36.27 0,-21.93 16,-37.06 L 734.67,-809 q 14.71,-15.67 36.72,-15.67 22.01,0 37.61,15.67 15.67,15 15.5,37 -0.17,22 -15.5,36.33 L 747.33,-674 q -15,16 -37,16 -22,0 -36.33,-16 z m 132.67,246.67 q -21.85,0 -37.26,-15.44 -15.41,-15.44 -15.41,-37.34 0,-21.89 15.41,-37.56 15.41,-15.66 37.26,-15.66 h 86.66 q 22.14,0 37.74,15.63 15.6,15.63 15.6,37.82 0,21.9 -15.6,37.22 -15.6,15.33 -37.74,15.33 z M 479.88,-14 q -21.9,0 -37.22,-15.41 -15.33,-15.41 -15.33,-37.26 v -86.66 q 0,-22.14 15.44,-37.74 15.44,-15.6 37.34,-15.6 21.89,0 37.56,15.6 15.66,15.6 15.66,37.74 v 86.66 q 0,21.85 -15.63,37.26 Q 502.07,-14 479.88,-14 Z m -266.55,-660 -61.66,-60.67 q -16.34,-14.36 -16.34,-36.34 0,-21.99 16.6,-37.99 15.07,-15.33 36.57,-15.33 21.5,0 36.5,15.33 l 61.67,61.67 q 16.33,16 16.33,38 0,22 -16.33,36.33 -15.58,16 -37.29,15.83 -21.71,-0.16 -36.05,-16.83 z m 521,522.33 -61.33,-61.66 q -16,-14.54 -15.5,-36.77 0.5,-22.23 16.5,-37.57 14.67,-15.33 36.33,-15.33 21.67,0 37,15.33 l 62.34,60.67 q 15.66,15 15.58,37.4 -0.08,22.4 -15.51,38 -15.56,16.6 -37.82,16.6 -22.25,0 -37.59,-16.67 z M 66.67,-427.33 q -21.85,0 -37.26,-15.44 Q 14,-458.21 14,-480.11 q 0,-21.89 15.41,-37.56 15.41,-15.66 37.26,-15.66 h 86.66 q 22.14,0 37.74,15.63 15.6,15.63 15.6,37.82 0,21.9 -15.6,37.22 -15.6,15.33 -37.74,15.33 H 66.67 Z m 85,275.4 q -16.34,-15.07 -16.34,-36.57 0,-21.5 16.34,-37.5 l 61.66,-61.67 Q 228.67,-303 250.5,-303 q 21.83,0 37.17,15.5 15.66,15.27 15.66,37.88 0,22.62 -15.66,37.29 L 227,-151.67 q -15.54,16.34 -37.77,16.34 -22.23,0 -37.56,-16.6 z M 480,-246.67 q -97.67,0 -165.5,-67.83 -67.83,-67.83 -67.83,-165.5 0,-97.67 67.83,-165.5 67.83,-67.83 165.5,-67.83 97.67,0 165.5,67.83 67.83,67.83 67.83,165.5 0,97.67 -67.83,165.5 -67.83,67.83 -165.5,67.83 z m 0,-106.66 q 51.33,0 89.33,-37.67 38,-37.67 38,-89 0,-51.33 -38,-89.33 -38,-38 -89.33,-38 -51.33,0 -89,38 -37.67,38 -37.67,89.33 0,51.33 37.67,89 37.67,37.67 89,37.67 z M 480,-480 Z"
     id="path1"
     style="fill:#93ffff;fill-opacity:1;stroke:#00d0d0;stroke-width:25.008;stroke-dasharray:none;stroke-opacity:1" />
</svg>
