<?xml version="1.0" encoding="UTF-8" standalone="no"?>
<svg
   height="40"
   viewBox="0 -960 960 960"
   width="40"
   fill="#eac452"
   version="1.1"
   id="svg1"
   xmlns="http://www.w3.org/2000/svg"
   xmlns:svg="http://www.w3.org/2000/svg">
  <defs
     id="defs1" />
  <path
     d="M 507,-645.33 V -839 q 0,-21.83 15.25,-37.08 15.25,-15.25 37.08,-15.25 H 839 q 21.83,0 37.08,15.25 15.25,15.25 15.25,37.08 v 193.67 q 0,23.23 -15.25,38.28 Q 860.83,-592 839,-592 H 559.33 q -21.83,0 -37.08,-15.05 Q 507,-622.1 507,-645.33 Z M 68,-476.67 V -839 q 0,-21.83 15.54,-37.08 15.54,-15.25 37.79,-15.25 h 280.34 q 21.83,0 37.08,15.25 Q 454,-860.83 454,-839 v 362.33 q 0,21.84 -15.25,37.09 -15.25,15.25 -37.08,15.25 H 121.33 q -22.25,0 -37.79,-15.25 Q 68,-454.83 68,-476.67 Z m 439,352.34 v -361.34 q 0,-23.23 15.25,-38.28 Q 537.5,-539 559.33,-539 H 839 q 21.83,0 37.08,15.05 15.25,15.05 15.25,38.28 v 361.34 q 0,22.92 -15.25,38.46 -15.25,15.54 -37.08,15.54 H 559.33 q -21.83,0 -37.08,-15.54 Q 507,-101.41 507,-124.33 Z m -439,0 V -318 q 0,-21.83 15.54,-37.08 15.54,-15.25 37.79,-15.25 h 280.34 q 21.83,0 37.08,15.25 Q 454,-339.83 454,-318 v 193.67 q 0,22.92 -15.25,38.46 -15.25,15.54 -37.08,15.54 H 121.33 q -22.25,0 -37.79,-15.54 Q 68,-101.41 68,-124.33 Z m 106.67,-406 H 348 v -255 H 174.67 Z m 439,353.33 H 785.33 V -432.33 H 613.67 Z m 0,-521 h 171.66 v -87.33 H 613.67 Z m -439,521 H 348 v -86.67 H 174.67 Z M 348,-530.33 Z M 613.67,-698 Z m 0,265.67 z M 348,-263.67 Z"
     id="path1"
     style="fill:#93ffff;fill-opacity:1;stroke:#00d0d0;stroke-width:25.008;stroke-dasharray:none;stroke-opacity:1" />
</svg>
