<?xml version="1.0" encoding="UTF-8" standalone="no"?>
<svg
   height="48"
   viewBox="0 -960 960 960"
   width="48"
   fill="#000000"
   version="1.1"
   id="svg1"
   xmlns="http://www.w3.org/2000/svg"
   xmlns:svg="http://www.w3.org/2000/svg">
  <defs
     id="defs1" />
  <path
     d="m 192.25128,-211.84479 h 276.69191 v -16.07402 c 0,-13.77774 -3.47312,-26.0246 -10.41936,-36.74064 -6.94623,-10.71601 -15.822,-17.98759 -26.62724,-21.81474 -24.69777,-8.41975 -43.99287,-13.96911 -57.88534,-16.64811 -13.8925,-2.67901 -27.39906,-4.0185 -40.51974,-4.0185 -14.66431,0 -30.29332,1.72222 -46.88714,5.16665 -16.59378,3.44443 -35.31004,8.61108 -56.14878,15.49996 -11.57704,3.82715 -20.8387,11.09873 -27.78494,21.81474 -6.94625,10.71604 -10.41937,22.9629 -10.41937,36.74064 z m 417.93213,-76.92569 H 749.1082 c 8.35865,0 15.27402,-2.72493 20.74612,-8.1748 5.46439,-5.44223 8.19657,-12.33107 8.19657,-20.66662 0,-8.32787 -2.73218,-15.17081 -8.19657,-20.52884 -5.4721,-5.35798 -12.38747,-8.03701 -20.74612,-8.03701 H 610.18341 c -8.35865,0 -15.27402,2.72495 -20.74608,8.17483 -5.4644,5.44219 -8.19658,12.33105 -8.19658,20.66658 0,8.32788 2.73218,15.17082 8.19658,20.52885 5.47206,5.35801 12.38743,8.03701 20.74608,8.03701 z m -276.6919,-57.40727 c 17.36558,0 32.12635,-6.02774 44.28231,-18.08327 12.15589,-12.05552 18.23384,-26.69437 18.23384,-43.91654 0,-17.22217 -6.07795,-31.86102 -18.23384,-43.91652 -12.15596,-12.05554 -26.91673,-18.08333 -44.28231,-18.08333 -17.3656,0 -32.12636,6.02779 -44.28228,18.08333 -12.15593,12.0555 -18.2339,26.69435 -18.2339,43.91652 0,17.22217 6.07797,31.86102 18.2339,43.91654 12.15592,12.05553 26.91668,18.08327 44.28228,18.08327 z m 276.6919,-72.33312 H 749.1082 c 8.35865,0 15.27402,-2.72492 20.74612,-8.17479 5.46439,-5.4422 8.19657,-12.33109 8.19657,-20.6666 0,-8.32788 -2.73218,-15.17084 -8.19657,-20.52883 -5.4721,-5.35802 -12.38747,-8.03705 -20.74612,-8.03705 H 610.18341 c -8.35865,0 -15.27402,2.72498 -20.74608,8.17481 -5.4644,5.44221 -8.19658,12.33109 -8.19658,20.66662 0,8.32789 2.73218,15.17082 8.19658,20.52883 5.47206,5.358 12.38743,8.03701 20.74608,8.03701 z M 85.742271,-20.104567 c -18.523314,0 -34.731206,-6.888869 -48.623684,-20.666609 C 23.226105,-54.548914 16.279865,-70.622945 16.279865,-88.993246 V -640.10285 c 0,-18.37031 6.94624,-34.44437 20.838722,-48.22208 13.892478,-13.77774 30.10037,-20.66662 48.623684,-20.66662 H 375.16894 v -160.7403 c 0,-18.37031 6.94625,-34.44434 20.83872,-48.22206 13.89247,-13.77777 30.25858,-20.66663 49.09837,-20.66663 h 68.51308 c 18.83973,0 35.20584,6.88886 49.09831,20.66663 13.8925,13.77772 20.83872,29.85175 20.83872,48.22206 v 160.7403 h 289.42668 c 18.52332,0 34.73122,6.88888 48.6237,20.66662 13.89248,13.77771 20.83872,29.85177 20.83872,48.22208 v 551.109604 c 0,18.370301 -6.94624,34.444332 -20.83872,48.22207 -13.89248,13.77774 -30.10038,20.666609 -48.6237,20.666609 z m 0,-68.888679 H 872.98282 V -640.10285 H 583.55614 v 34.44434 c 0,21.43205 -6.94622,38.27152 -20.83872,50.51838 -13.89247,12.24691 -30.25858,18.37031 -49.09831,18.37031 h -68.51308 c -18.83979,0 -35.2059,-6.1234 -49.09837,-18.37031 -13.89247,-12.24686 -20.83872,-29.08633 -20.83872,-50.51838 v -34.44434 H 85.742271 Z M 444.63135,-605.65851 h 69.46238 v -264.07334 h -69.46238 z"
     id="path1"
     style="fill:#42e2e7;fill-opacity:1;stroke:#3bb3ae;stroke-width:19.5996;stroke-dasharray:none;stroke-opacity:1" />
</svg>
