<?xml version="1.0" encoding="UTF-8" standalone="no"?>
<svg
   height="40"
   viewBox="0 -960 960 960"
   width="40"
   fill="#eac452"
   version="1.1"
   id="svg1"
   xmlns="http://www.w3.org/2000/svg"
   xmlns:svg="http://www.w3.org/2000/svg">
  <defs
     id="defs1" />
  <path
     d="m 209.47763,-213.57912 h 263.66531 v -16.72819 q 0,-19.81631 -10.40813,-35.73702 -10.40814,-15.90978 -26.20658,-21.14756 -31.01622,-12.11239 -51.97491,-16.17168 -20.96964,-4.05929 -41.4134,-4.05929 -21.91184,0 -44.9193,4.91042 -23.00744,4.91044 -50.39725,15.10231 -17.08029,6.32899 -27.7185,21.37672 -10.62724,15.03682 -10.62724,35.7261 z m 393.31773,-70.55739 h 123.42947 q 12.81844,0 21.19972,-8.36956 8.38129,-8.36955 8.38129,-21.1694 0,-12.79985 -8.38129,-21.09302 -8.38128,-8.29316 -21.19972,-8.29316 H 602.79536 q -12.81842,0 -21.19971,8.36955 -8.38128,8.36955 -8.38128,21.1694 0,12.79985 8.38128,21.09302 8.38129,8.29317 21.19971,8.29317 z m -259.28294,-58.92514 q 25.92172,0 43.62651,-18.01582 17.71572,-18.01582 17.71572,-43.83375 0,-25.81794 -17.58426,-43.45183 -17.58426,-17.6448 -43.96613,-17.6448 -25.36296,0 -43.6265,17.51385 -18.26353,17.51387 -18.26353,43.7901 0,25.26143 18.08824,43.45184 18.08823,18.19041 44.00995,18.19041 z m 259.28294,-66.93459 h 124.16353 q 12.17202,0 20.50948,-9.15523 8.33747,-9.15521 8.33747,-21.55132 0,-11.47948 -8.47989,-20.03454 -8.46894,-8.54414 -20.36706,-8.54414 H 602.79536 q -13.02659,0 -21.30927,8.48958 -8.27172,8.48958 -8.27172,20.76565 0,11.8505 8.38128,20.94025 8.38129,9.08975 21.19971,9.08975 z M 125.11699,-13.888391 q -48.019822,0 -82.081795,-33.914688 -34.0510188,-33.9256 -34.0510188,-81.753171 v -487.76917 q 0,-48.12219 34.0510188,-82.25513 34.061973,-34.13292 82.081795,-34.13292 h 212.54497 v -122.9462 q 0,-41.9678 26.68864,-68.99698 26.68862,-27.02917 70.38086,-27.02917 h 90.34257 q 42.43231,0 69.57013,27.02917 27.13783,27.02918 27.13783,68.99698 v 122.9462 H 833.5929 q 48.31564,0 82.59673,34.13292 34.27014,34.13294 34.27014,82.25513 v 487.76917 q 0,47.827571 -34.27014,81.753171 -34.28109,33.914688 -82.59673,33.914688 z m 0,-115.667859 H 833.5929 V -617.32542 H 619.95234 v 21.82412 q -6.93509,34.9186 -34.68645,53.10901 -27.76232,18.19041 -60.19186,18.19041 h -90.70411 q -33.16359,0 -61.83525,-18.73601 -28.67165,-18.73601 -33.05402,-52.56341 v -21.82412 H 125.11699 Z m 319.91305,-500.49263 h 69.38388 v -215.69873 h -69.38388 z m 34.32492,256.06244 z"
     id="path1"
     style="fill:#93ffff;fill-opacity:1;stroke:#00d0d0;stroke-width:25.104;stroke-dasharray:none;stroke-opacity:1" />
</svg>
