<?xml version="1.0" encoding="UTF-8" standalone="no"?>
<svg
   height="40"
   viewBox="0 -960 960 960"
   width="40"
   fill="#eac452"
   version="1.1"
   id="svg1"
   xmlns="http://www.w3.org/2000/svg"
   xmlns:svg="http://www.w3.org/2000/svg">
  <defs
     id="defs1" />
  <path
     d="m 194.33936,-20.759863 q -72.93986,0 -122.402862,-46.472966 Q 22.473503,-113.69515 22.473503,-180.49737 v -105.77817 q 0,-24.24816 17.885507,-40.52008 17.885508,-16.27194 43.229994,-16.27194 H 180.5901 v -575.05502 q 0,-10.23385 8.98285,-13.82262 8.9714,-3.57812 16.8314,3.73786 l 28.80472,26.76136 q 7.84853,8.51933 21.49468,7.98687 13.64615,-0.53246 22.04466,-9.05179 l 32.45974,-29.45559 q 7.12671,-6.75158 21.12804,-6.75158 14.0128,0 21.26553,6.75158 l 30.93586,29.45559 q 7.1267,8.51933 21.18533,8.51933 14.05863,0 22.35403,-8.51933 l 32.47118,-29.45559 q 6.94338,-6.75158 20.86452,-6.75158 13.92114,0 22.67484,6.75158 l 30.54628,29.45559 q 8.1579,8.51933 22.22799,8.51933 14.05863,0 21.31137,-8.51933 l 32.47119,-29.45559 q 6.21009,-6.75158 20.55515,-6.75158 14.33361,0 22.9842,6.75158 l 30.5463,29.45559 q 7.84853,8.51933 21.49468,8.51933 13.64615,0 22.04466,-8.51933 l 31.32542,-29.45559 q 7.25274,-6.75158 21.58636,-6.75158 14.34506,0 21.95299,6.75158 l 31.69207,29.45559 q 7.1267,8.51933 21.18533,9.05179 14.05863,0.53246 22.35401,-7.98687 l 29.79009,-26.97435 q 6.9663,-7.10299 16.65953,-3.37578 9.69324,3.72721 9.69324,13.67353 v 737.62521 q 0,66.80222 -50.21921,113.264541 -50.2192,46.472966 -121.64665,46.472966 z M 763.03204,-134.34388 q 20.6239,0 34.94606,-13.4499 14.32215,-13.4499 14.32215,-32.5545 V -791.04607 H 302.04197 v 447.97851 h 349.85015 q 24.89763,0 43.00083,16.27194 18.1032,16.27192 18.1032,40.52008 v 105.67168 q 0,19.27499 14.32216,32.76749 14.32216,13.49249 35.71373,13.49249 z M 395.9953,-686.68423 h 173.01164 q 16.12102,0 27.72769,10.71306 11.61813,10.72371 11.61813,25.78164 0,15.06857 -11.61813,25.49411 -11.60667,10.42552 -27.72769,10.42552 H 395.9953 q -15.78874,0 -27.17772,-10.63851 -11.38898,-10.62787 -11.38898,-25.37696 0,-14.74911 11.38898,-25.56865 11.38898,-10.83021 27.17772,-10.83021 z m 0,138.7906 h 173.01164 q 16.12102,0 27.72769,10.63851 11.61813,10.62788 11.61813,25.56865 0,14.93014 -11.61813,25.56865 -11.60667,10.63852 -27.72769,10.63852 H 395.9953 q -15.78874,0 -27.17772,-10.75566 -11.38898,-10.7663 -11.38898,-25.70709 0,-14.93013 11.38898,-25.44085 11.38898,-10.51073 27.17772,-10.51073 z m 314.04477,-66.37627 q -15.75438,0 -27.40688,-10.86215 -11.65251,-10.86215 -11.65251,-25.02554 0,-14.16338 11.40044,-25.34501 11.40043,-11.18163 27.49854,-11.18163 16.0981,0 27.55582,10.94734 11.45772,10.94734 11.45772,25.43021 0,14.47222 -11.54938,25.25983 -11.53793,10.77695 -27.30375,10.77695 z m 0,135.24443 q -15.75438,0 -27.40688,-10.98994 -11.65251,-11.00059 -11.65251,-25.34502 0,-14.35507 11.40044,-25.21722 11.40043,-10.86215 27.49854,-10.86215 16.0981,0 27.55582,10.86215 11.45772,10.86215 11.45772,25.21722 0,14.34443 -11.54938,25.34502 -11.53793,10.98994 -27.30375,10.98994 z m -516.45691,344.68159 h 397.96113 v -95.13966 H 144.69305 v 48.98617 q 0,19.1685 14.05862,32.661 14.04718,13.49249 34.83149,13.49249 z m -48.89011,0 v -95.13966 z"
     id="path1"
     style="fill:#93ffff;fill-opacity:1;stroke:#00d0d0;stroke-width:25.752;stroke-dasharray:none;stroke-opacity:1" />
</svg>
