<?xml version="1.0" encoding="UTF-8" standalone="no"?>
<svg
   height="40"
   viewBox="0 -960 960 960"
   width="40"
   fill="#eac452"
   version="1.1"
   id="svg1"
   xmlns="http://www.w3.org/2000/svg"
   xmlns:svg="http://www.w3.org/2000/svg">
  <defs
     id="defs1" />
  <path
     d="m 791.90402,-9.2955166 q -10.16822,0 -19.95947,-3.8831944 -9.80117,-3.883192 -17.08262,-11.649579 l -242.0532,-237.84557 q -8.11473,-6.0869 -11.99354,-15.87255 -3.87881,-9.78565 -3.87881,-19.40626 0,-9.6109 3.87881,-19.89166 3.87881,-10.27104 11.99354,-17.96948 l 86.64315,-85.10017 q 7.20207,-7.3004 17.37028,-11.90199 10.16822,-4.60158 20.65389,-4.60158 9.82101,0 19.98923,4.60158 10.16822,4.60159 17.04293,11.90199 l 243.04522,238.48631 q 7.28145,7.12566 11.57689,16.40648 4.29546,9.29054 4.29546,19.90137 0,9.9701 -5.02955,20.09552 -5.03947,10.13514 -10.8428,16.40649 l -86.96059,85.760318 q -7.86673,6.319897 -18.03494,10.436082 -10.16822,4.1258934 -20.65388,4.1258934 z m 0.99202,-105.8170134 31.74468,-31.06554 -188.15669,-184.45167 -30.75266,30.09474 z M 165.93854,-9.9459526 q -10.2575,0 -20.64396,-3.5628304 -10.39638,-3.55312 -17.39013,-11.319507 l -85.968564,-83.81872 q -7.93617,-6.19369 -11.576889,-15.87255 -3.640719,-9.68857 -3.640719,-20.36735 0,-10.02834 3.640719,-20.16348 3.640719,-10.12542 11.576889,-16.72685 L 284.9811,-418.97238 h 94.89677 l 33.07399,-32.36641 -182.53192,-179.26762 h -63.162 L 18.782108,-774.93498 148.08216,-901.13876 296.22071,-756.81018 v 61.80102 l 182.53192,179.27731 127.3061,-124.58254 -63.81673,-62.78152 54.88855,-53.07354 H 486.6888 l -32.40933,-31.70628 161.37211,-158.89055 33.40136,32.68678 v 107.42854 l 54.22388,-53.39391 182.13512,179.52972 q 18.2532,19.16356 29.33407,41.90936 11.08089,22.7361 11.08089,47.80211 0,27.80366 -12.24155,53.21916 -12.23162,25.4155 -30.088,44.83146 l -94.5694,-92.5559 -62.16998,61.16029 -53.56915,-52.74347 -227.50025,222.63317 v 92.55591 L 202.64333,-24.82829 q -6.8747,7.766387 -16.54691,11.319507 -9.67221,3.5628304 -20.15788,3.5628304 z m 0,-104.8462074 197.41226,-192.53843 v -31.06553 h -31.74469 l -197.41224,192.53841 z m 0,0 -31.74467,-31.06555 16.22946,15.17358 z m 626.9575,-0.32037 31.74468,-31.06554 z"
     id="path1"
     style="fill:#93ffff;fill-opacity:1;stroke:#00d0d0;stroke-width:24.984;stroke-dasharray:none;stroke-opacity:1" />
</svg>
