<?xml version="1.0" encoding="UTF-8" standalone="no"?>
<!-- Created with Inkscape (http://www.inkscape.org/) -->

<svg
   version="1.1"
   id="svg1"
   width="347"
   height="354"
   viewBox="0 0 347 354"
   xmlns="http://www.w3.org/2000/svg"
   xmlns:svg="http://www.w3.org/2000/svg">
  <defs
     id="defs1" />
  <g
     id="layer1"
     transform="matrix(0.9463522,0,0,1,71.803737,0)">
    <path
       style="display:inline;fill:#b284fa;fill-opacity:1;stroke:#b284fa;stroke-width:2.9677;stroke-dasharray:none;stroke-opacity:1"
       d="m 41.943036,343.68643 c 0,-0.14048 -1.039234,-1.20656 3.443984,-1.31762 16.559569,-0.4102 66.8565,0.32151 143.30183,0.32151 145.36793,0 42.75432,1.94765 93.16954,-1.18933 0.90362,-0.0562 1.09813,-1.19315 1.40367,-6.1427 0.65406,-10.59506 0.66317,-41.2819 0.66317,-135.69197 0,-136.196304 -0.0514,-139.903738 -1.97523,-142.194053 l -1.97524,-2.351587 -17.82139,-1.07141 c -15.79035,-0.949305 -27.76048,-0.877692 -39.08239,-0.763342 -12.1842,0.123058 -23.32034,0.33278 -28.91344,0.466071 -4.6886,0.111735 -5.46869,-0.758133 -5.46869,-0.947862 0,-1.497385 89.53863,-0.515893 92.46241,0.98509 1.24149,0.637348 2.82377,1.870028 3.51618,2.73929 0.9756,1.224809 1.26629,33.365121 1.29177,142.823683 l 0.0328,141.24323 -2.53657,2.44499 -2.53658,2.44499 -91.66638,-0.80288 C 91.73917,343.82845 41.943036,344.34584 41.943036,343.68643 Z M 120.48618,332.9783 c 0.002,-0.4109 0.9318,-5.35752 2.06684,-10.99248 2.9883,-14.83553 2.80648,-32.67307 -0.51544,-50.56844 -2.61179,-14.06983 -3.69984,-39.29475 -1.69495,-39.29475 0.49115,0 1.15962,6.61166 1.48548,14.69255 0.38252,9.48565 1.52022,19.2817 3.21035,27.64193 2.82137,13.95604 3.43357,28.3546 1.6517,38.84812 -1.81955,10.71547 -4.32766,20.42014 -5.27743,20.42014 -0.51132,0 -0.92827,-0.33617 -0.92655,-0.74707 z m 64.7323,-10.95716 c -1.62655,-9.48523 -0.7413,-16.41466 3.59497,-28.13998 12.23384,-33.08053 23.60494,-71.95799 26.2519,-89.75449 l 0.68232,-4.58745 -5.00369,0.79267 c -5.94082,0.94117 -21.2244,1.15621 -23.45797,0.33006 -1.30271,-0.48184 -1.04095,-1.41314 1.52856,-5.43833 1.70524,-2.67131 5.18917,-7.09621 7.74205,-9.8331 l 4.64162,-4.97617 -7.48256,-10.75274 c -4.11543,-5.914 -9.48775,-13.37946 -11.93851,-16.58992 -2.45077,-3.21044 -4.45595,-6.42771 -4.45595,-7.14947 0,-0.72175 1.1626,-2.19374 2.58355,-3.27111 3.89895,-2.95617 3.36005,-6.35756 -1.7583,-11.09815 -4.6569,-4.31318 -4.33549,-5.16607 0.80759,-2.14307 4.35669,2.56078 7.14745,8.28602 5.49217,11.26725 -0.67536,1.21635 -2.10792,2.9025 -3.18347,3.74697 -1.89715,1.48956 -1.86948,1.62798 0.9268,4.6371 2.85728,3.07474 6.39512,4.25288 30.99942,10.32314 4.40376,1.08649 1.20658,1.96826 3.9728,3.01089 10.10307,3.808 -7.74858,-1.55872 -15.24118,-3.46386 -7.49261,-1.90513 -13.81045,-3.2831 -14.03968,-3.06216 -0.2292,0.22095 3.37259,5.84988 8.004,12.50871 9.21342,13.24668 9.00635,11.8602 2.73771,18.3303 -1.64119,1.69396 -4.19627,4.64879 -5.67792,6.56628 -1.48169,1.91751 -3.11988,3.78133 -3.64046,4.14185 -1.93859,1.34248 10.53801,1.94379 18.97069,0.91428 4.80431,-0.58653 9.10561,-0.70933 9.55842,-0.27289 0.89835,0.86594 -3.5551,22.58002 -8.51878,41.53567 -1.72154,6.57429 -7.39199,24.05593 -12.60102,38.84811 -8.28276,23.5207 -9.47747,27.76962 -9.5229,33.86758 -0.0286,3.83501 0.28522,8.42954 0.69729,10.21007 0.55658,2.40494 0.39207,3.23735 -0.63985,3.23735 -0.80233,0 -1.65964,-1.57782 -2.02962,-3.73539 z m -66.80227,-1.63175 c 0,-5.16903 -5.50154,-20.20723 -11.88376,-32.48373 -6.717926,-12.92226 -7.504623,-14.94271 -5.81824,-14.94271 1.49396,0 14.32487,25.8952 16.53439,33.36953 2.69044,9.10114 3.70093,16.43574 2.26435,16.43574 -0.60321,0 -1.09674,-1.07047 -1.09674,-2.37883 z m -82.156992,-1.65076 c -2.841908,-1.0253 -7.492305,-1.89268 -10.334212,-1.92749 -2.841909,-0.0348 -7.098882,-0.90878 -9.459944,-1.94213 -6.198075,-2.71268 -8.9599952,-7.96382 -12.2942401,-23.37455 -3.36114274,-15.53509 -3.23313802,-25.9911 0.3906622,-31.91121 1.3946175,-2.27835 2.2452297,-5.34062 2.2452297,-8.08302 0,-2.4602 1.2203031,-7.35326 2.7560594,-11.05098 2.4891098,-5.99317 2.6392528,-7.05686 1.5501318,-10.98193 -1.8994647,-6.84544 -1.5221849,-8.77466 2.44172,-12.48578 l 3.647647,-3.41501 -2.736041,-5.76052 c -3.184819,-6.70535 -3.097641,-12.75598 0.278558,-19.33348 1.556908,-3.03317 1.947368,-5.34972 1.594,-9.45703 -0.79642,-9.25701 4.163721,-18.61246 9.868062,-18.61246 4.095396,0 11.757977,8.33035 16.681723,18.13548 6.457859,12.86015 12.639331,37.64641 9.388675,37.64641 -0.568383,0 -1.033423,-0.84246 -1.033423,-1.87216 0,-3.4508 -6.380436,-26.35411 -8.82768,-31.68793 -5.360367,-11.68307 -13.676938,-21.01687 -17.474762,-19.61213 -2.094879,0.77485 -5.327317,6.74112 -6.266422,11.56623 -1.158769,5.95374 0.948684,9.90765 8.920951,16.73715 7.364274,6.30865 16.147165,16.49309 15.096611,17.50572 -0.315493,0.30411 -5.840205,-4.6873 -12.277128,-11.092 l -11.703501,-11.64492 -1.791806,3.84385 c -2.292166,4.91721 -2.341106,13.2346 -0.10447,17.7555 0.957843,1.93609 2.12044,3.52018 2.583548,3.52018 1.998346,0 0.540272,2.86801 -3.291662,6.47467 -4.618891,4.34739 -4.813392,5.19062 -2.527812,10.95921 1.555701,3.92646 1.506577,4.31266 -1.572404,12.36178 -2.299054,6.01022 -2.9999323,9.225 -2.5335906,11.62105 0.4719494,2.42487 0.1010166,4.05913 -1.3844169,6.09949 -3.5204643,4.83561 -4.7066573,10.03441 -4.0262134,17.6459 0.7382451,8.25806 4.0852414,23.57093 6.2313719,28.50919 2.863363,6.58859 8.75477,9.92367 17.53016,9.92367 2.189043,0 7.176728,0.93588 11.083742,2.07975 9.126805,2.67208 10.966118,2.10661 24.920622,-7.66167 5.866764,-4.10679 13.224559,-8.87174 16.350658,-10.58874 6.74782,-3.70625 6.794986,-3.76232 8.896782,-10.57475 1.096109,-3.55277 1.98864,-4.99711 2.677585,-4.33304 0.688944,0.66406 0.467597,2.8722 -0.664067,6.62441 -1.499147,4.97068 -2.254457,5.9425 -6.464456,8.31746 -2.621838,1.47903 -10.391446,6.53765 -17.265817,11.24136 -6.87437,4.70372 -13.514609,9.07413 -14.756109,9.71204 -3.239579,1.66454 -10.357444,1.28237 -16.344322,-0.87757 z M 175.94846,308.07567 c -7.11802,-22.01425 -9.07085,-47.25085 -7.2455,-93.63391 0.37192,-9.45056 1.07907,-17.18283 1.57145,-17.18283 0.49239,0 0.81714,16.02485 0.72168,35.61077 -0.13814,28.34427 0.17982,38.20474 1.55824,48.32298 1.497,10.98866 5.15849,27.26424 7.39235,32.85961 0.39442,0.98794 0.21978,1.74319 -0.40308,1.74319 -0.60447,0 -2.22228,-3.47391 -3.59514,-7.71981 z M 52.109378,296.81957 c -5.390728,-5.46221 -10.684894,-16.36113 -12.30596,-25.33385 -1.391109,-7.69988 -0.73996,-23.08871 1.118587,-26.43604 1.878428,-3.38312 2.28973,-1.65439 1.092109,4.59022 -3.224585,16.81353 0.597337,32.07185 11.30351,45.12708 5.371134,6.54964 4.571173,7.90863 -1.208246,2.05259 z m 84.391702,3.03823 c -0.37114,-0.57884 0.64961,-0.99612 2.43673,-0.99612 1.69149,0 6.25307,-1.61743 10.13685,-3.59427 6.81168,-3.46716 6.97005,-3.49897 4.47787,-0.89916 -4.90145,5.11309 -15.17261,8.41979 -17.05145,5.48955 z m 87.34564,-32.92128 c 0.005,-8.27324 0.008,-14.57745 0.0805,-19.65008 0.23572,-16.42907 1.20989,-19.93924 5.41516,-35.58398 1.47263,-5.47859 2.94749,-11.64198 3.2774,-13.69645 0.3299,-2.05446 1.95543,-24.76214 2.56259,-24.76214 1.55514,0 -0.4913,27.75066 -4.89637,43.88626 l -3.68508,13.49834 -0.43541,33.86758 c -0.24,18.66919 -0.86282,34.29224 -1.38788,34.81389 -0.58159,0.57782 -0.9441,-12.02805 -0.93093,-32.37342 z m -80.03175,20.04102 c 2.57181,-5.12061 14.29038,-20.27339 14.71934,-19.03297 0.43479,1.25729 -8.08099,13.56034 -13.03392,18.83056 l -3.40175,3.61966 z m -66.440963,-0.037 c -5.944497,-3.49367 -12.757834,-20.4605 -14.952665,-37.23569 -0.980541,-7.4943 -0.919549,-10.5673 0.342951,-17.27934 1.000652,-5.31996 1.151499,-7.94585 0.433023,-7.53787 -7.138956,4.05366 -38.760106,33.76925 -43.996028,41.34471 -1.417388,2.05074 -3.184663,3.73165 -3.927274,3.7354 -3.844021,0.0194 10.494717,-16.55342 26.316438,-30.41668 14.19399,-12.43703 29.520516,-24.8394 30.710583,-24.85132 0.498017,-0.005 2.268587,-4.71564 3.934596,-10.46816 6.445163,-22.25424 14.693865,-32.81191 23.837349,-30.50981 1.27886,0.32198 5.52613,3.06006 9.43838,6.08462 5.89262,4.55558 7.80458,5.49919 11.14248,5.49919 5.35389,0 10.37208,2.12471 12.53575,5.30763 2.03336,2.99126 2.33827,9.67553 0.52125,11.42694 -2.06662,1.99201 -5.82388,1.37526 -7.60761,-1.24877 -1.08512,-1.5963 -3.63973,-2.99842 -7.36471,-4.04219 -6.60379,-1.85043 -10.65652,-5.2631 -10.65652,-8.97352 0,-3.02023 -1.45564,-6.03238 -4.44298,-9.19375 -3.42283,-3.62228 -9.455041,-3.10235 -13.640976,1.17577 -4.31559,4.41063 -9.63642,17.41711 -14.024055,34.28102 l -3.458684,13.29347 1.664676,7.75985 c 0.91557,4.26792 3.801792,12.49069 6.413826,18.27283 3.927923,8.69504 4.575202,10.95397 3.743194,13.06329 -0.553269,1.40267 -0.622203,2.55034 -0.153174,2.55034 1.81689,0 9.330617,-6.0047 11.07459,-8.8504 1.901633,-3.10296 3.905648,-3.33967 2.808118,-0.33167 -1.509959,4.13829 -5.851555,8.12441 -12.537398,11.51087 -3.96103,2.0063 -7.715183,3.64782 -8.34254,3.64782 -1.959761,0 -1.259897,-1.72404 1.959604,-4.82727 1.749563,-1.68639 3.100263,-4.04657 3.100263,-5.41733 0,-1.33596 -1.822312,-6.18908 -4.049585,-10.78476 -6.946927,-14.33399 -9.338925,-27.68938 -6.310824,-35.23565 l 1.193126,-2.97338 -2.534022,2.29463 c -6.030591,5.46088 -7.988853,27.38185 -3.752157,42.00218 5.082543,17.53922 10.059872,25.91187 15.388447,25.88577 2.117647,-0.0104 3.963213,-1.71888 9.206855,-8.5231 7.527015,-9.76715 8.871236,-13.4141 8.147989,-22.10572 -0.497431,-5.97794 0.405241,-8.93178 1.720177,-5.62887 1.24223,3.12032 0.61142,15.44779 -0.97838,19.11984 -0.88186,2.03686 -3.574889,6.16875 -5.98452,9.18197 -2.409614,3.01323 -5.186618,6.71126 -6.171089,8.21787 -2.174313,3.32747 -5.947262,3.601 -10.748474,0.77929 z m 55.017063,-87.76136 c 0.92573,-2.8114 -0.0344,-6.00174 -2.60749,-8.66386 -1.63262,-1.68913 -3.31367,-2.2223 -7.0156,-2.22513 -3.04074,-0.002 -6.13876,-0.75025 -8.25209,-1.99221 -4.35186,-2.55753 -4.53749,-2.52017 -3.73123,0.75081 0.9572,3.88335 2.93912,5.74895 7.50975,7.06889 5.33794,1.54158 7.35575,1.44689 7.35575,-0.34515 0,-0.82179 0.46503,-1.49416 1.03342,-1.49416 0.56838,0 1.03342,1.30808 1.03342,2.90684 0,5.74408 3.19799,8.47677 4.67407,3.994 z m 134.4874,79.1117 c -0.3077,-1.56071 -0.85882,-6.42369 -1.22469,-10.80655 -0.5586,-6.69177 -2.43619,-17.86283 -6.27835,-37.35396 -1.28042,-6.49556 1.66401,-1.72475 3.75932,6.09118 2.81042,10.48339 6.73985,42.55845 5.37491,43.87411 -0.73998,0.71326 -1.24487,0.15465 -1.63119,-1.80474 z M 6.8067138,268.12136 c 0,-5.21844 5.5531952,-12.27661 12.2127532,-15.52256 6.138698,-2.99207 5.873481,-1.03489 -0.405259,2.99063 -4.711422,3.02065 -6.779083,5.17334 -8.9655861,9.33426 -1.9388478,3.68965 -2.8419081,4.70575 -2.8419081,3.19767 z M 87.413568,255.56155 c 0,-0.39085 2.56917,-4.14354 5.709266,-8.33936 l 5.709256,-7.62877 -3.259097,-0.64757 c -5.02268,-0.99799 -8.029986,-2.89984 -10.379472,-6.56411 -3.177681,-4.95596 -1.800328,-4.8683 3.480101,0.22146 5.988623,5.77237 9.775584,5.96897 19.335528,1.00376 3.65442,-1.89802 6.88202,-3.2219 7.17245,-2.94198 0.90984,0.877 -2.34222,3.37619 -8.17097,6.27932 -4.43329,2.20811 -6.63673,4.2454 -10.485665,9.69508 -4.358637,6.17134 -9.111397,10.8254 -9.111397,8.92217 z M 243.46018,251.5874 c 0,-0.25154 2.10951,-4.39782 4.68777,-9.21398 2.5783,-4.81613 5.65772,-11.81841 6.84319,-15.5606 2.30016,-7.26087 2.27637,-7.59731 -1.61427,-22.83017 -1.11816,-4.3779 -9.92764,-21.29071 -0.20938,-5.72761 1.00599,1.611 6.1627,18.27209 5.48267,23.78466 -0.92736,7.51761 -11.56969,30.00503 -14.20011,30.00503 -0.54443,0 -0.98987,-0.20579 -0.98987,-0.45733 z M 139.30854,240.28666 c -10.75484,-9.77226 -10.87278,-10.10462 -6.96065,-19.61924 2.76866,-6.73366 3.60333,-4.25753 1.1752,3.48636 -0.78935,2.51737 -1.0629,5.36774 -0.624,6.50183 0.42984,1.11063 3.86643,4.62994 7.63684,7.82066 6.28162,5.31581 9.61961,9.20598 8.67802,10.11357 -0.2048,0.1974 -4.66223,-3.53903 -9.90541,-8.30318 z m 94.85085,6.12619 c 0,-1.3041 7.20303,-13.02543 8.77932,-14.28641 1.43663,-1.14925 1.50148,-0.99419 0.57092,1.36499 -0.5774,1.46383 -2.67911,5.11654 -4.67048,8.11716 -3.35933,5.06183 -4.67976,6.41739 -4.67976,4.80426 z M 21.274609,241.22761 c 0,-1.17276 7.122236,-5.56028 7.864522,-4.84479 0.287013,0.27665 -0.783788,1.37489 -2.379556,2.44055 -4.550608,3.03888 -5.484966,3.44843 -5.484966,2.40424 z m 18.426853,-13.78757 c -2.503268,-2.08137 -5.696952,-4.51974 -7.097083,-5.41861 -3.799238,-2.43906 -1.651169,-3.40233 2.308704,-1.0353 4.144929,2.47765 10.729477,8.8987 9.922715,9.67634 -0.320619,0.30903 -2.63107,-1.14106 -5.134336,-3.22243 z m 71.480798,1.62681 c -8.74974,-1.09159 -12.678084,-2.22776 -13.231048,-3.82677 -0.311833,-0.90174 0.186872,-1.10114 1.641157,-0.65624 3.442371,1.0531 13.919811,2.54738 17.790421,2.53724 4.76037,-0.0124 6.23492,-1.03471 6.49906,-4.50545 0.20736,-2.72483 -0.0434,-2.9044 -5.05988,-3.62405 -6.06146,-0.86953 -22.15366,-5.55681 -23.58884,-6.87084 -2.374204,-2.1738 1.005416,-1.8338 10.30108,1.03635 5.52237,1.70508 12.03343,3.36345 14.46899,3.68522 4.15449,0.54887 4.52989,0.3957 6.07105,-2.47695 0.90352,-1.68411 1.64275,-3.46687 1.64275,-3.96169 0,-0.49481 -5.34796,-2.55211 -11.88434,-4.57175 -6.5364,-2.01965 -11.88435,-4.10242 -11.88435,-4.62838 0,-1.26014 -0.65219,-1.38467 10.98217,2.09728 6.45545,1.93201 11.43658,2.86967 13.56159,2.5529 1.84724,-0.27538 3.35861,-0.0806 3.35861,0.43279 0,0.51342 -0.46503,0.93349 -1.03342,0.93349 -0.56838,0 -1.03342,1.48318 -1.03342,3.29597 0,1.8128 -0.68278,4.16609 -1.51726,5.22956 -0.8345,1.06346 -1.53205,3.56484 -1.55013,5.55861 -0.0384,4.23567 -2.57999,7.56807 -6.23339,8.17297 -1.42096,0.23526 -5.60633,0.0506 -9.3008,-0.41026 z m -25.835262,-8.13058 c -2.332948,-2.41371 -3.577281,-5.90446 -2.832453,-7.94594 0.258438,-0.70832 1.199598,0.36859 2.091449,2.39317 0.891851,2.02456 2.585971,4.26155 3.764704,4.97109 1.178726,0.70956 2.143132,1.63053 2.143132,2.0466 0,1.5559 -3.095296,0.67831 -5.166832,-1.46492 z M 63.72121,206.18977 c -0.760887,-3.30591 -1.2056,-6.15459 -0.98824,-6.33039 0.989801,-0.80058 10.614239,-3.54156 11.029623,-3.14115 0.256537,0.24725 -1.697488,1.46291 -4.342261,2.70144 -5.181605,2.42652 -5.044801,1.94389 -2.987528,10.53961 0.295022,1.23268 0.116879,2.24124 -0.395873,2.24124 -0.512763,0 -1.554834,-2.70483 -2.315721,-6.01075 z m 18.561624,0.0996 c -1.293745,-2.33007 -1.379617,-4.04992 -0.202243,-4.04992 0.751217,0 3.266135,4.25458 3.266135,5.52544 0,1.238 -2.125643,0.21432 -3.063892,-1.47554 z m 58.384906,-0.31452 c -3.20415,-4.39395 -3.76151,-8.97483 -2.10637,-17.31209 0.85598,-4.31176 1.5564,-9.09452 1.55651,-10.62833 2.1e-4,-3.39964 -2.4318,-8.23284 -5.98464,-11.8934 -1.45671,-1.50089 -2.4047,-2.96398 -2.10662,-3.2513 1.05577,-1.01767 6.11252,3.73542 8.22963,7.73545 1.79586,3.39308 2.04109,5.13049 1.49808,10.61396 -1.98791,20.0748 -2.01798,19.22695 0.82411,23.24155 1.89722,2.67992 2.23179,3.7354 1.18405,3.7354 -0.80321,0 -2.19586,-1.00856 -3.09475,-2.24124 z m -46.404094,-6.80096 c -3.07995,-2.33521 -5.999907,-6.69744 -3.594562,-5.37003 0.767194,0.42338 2.228715,1.4609 3.247838,2.3056 1.677167,1.39011 1.792138,1.38305 1.211881,-0.0746 -0.352602,-0.88568 -1.273729,-1.8443 -2.046969,-2.13031 -1.396523,-0.51655 -3.584614,-6.50707 -3.59565,-9.84412 -0.01031,-3.12499 1.949815,-1.83363 2.645964,1.74319 0.373201,1.9175 0.838183,3.48637 1.033277,3.48637 0.195101,0 1.517323,-1.12062 2.938277,-2.49026 1.420953,-1.36966 3.431307,-2.49027 4.467418,-2.49027 5.30428,0 8.81161,6.5216 6.45571,12.00387 -0.88761,2.06549 -2.3371,3.19856 -5.00584,3.91307 -4.880805,1.30676 -4.59425,1.34564 -7.757344,-1.05261 z m 10.718084,-5.99992 c 0,-3.51735 -1.62483,-6.8722 -3.32836,-6.8722 -1.818017,0 -5.976618,4.13178 -5.939568,5.90123 0.01807,0.86325 0.599388,2.28127 1.291779,3.15115 3.117679,3.91678 7.976149,2.58878 7.976149,-2.18018 z m 53.2212,3.02812 c -3.15602,-0.89291 -11.32733,-6.78483 -10.50671,-7.57583 0.24781,-0.23885 2.68798,0.9334 5.42261,2.60504 5.29419,3.23623 10.75492,3.9607 12.71296,1.68659 1.2597,-1.46302 5.2889,-15.73099 5.2889,-18.72872 0,-2.42473 -1.9956,-2.33472 -11.94223,0.5387 -4.51523,1.30436 -8.55309,2.17748 -8.97306,1.94026 -0.89836,-0.50744 0.72117,-3.04284 8.71376,-13.64161 3.24986,-4.30959 6.10397,-8.3438 6.34247,-8.96496 0.31406,-0.81799 0.7663,-0.82925 1.64042,-0.0408 0.90454,0.8159 -0.45681,3.31083 -5.4352,9.96107 -3.65312,4.87988 -6.50598,9.0181 -6.33968,9.19606 0.16629,0.17795 3.44154,-0.58424 7.27831,-1.69373 11.41936,-3.30219 12.805,-1.01137 8.56017,14.15213 -3.08174,11.0087 -5.14886,12.72 -12.76272,10.5658 z m -88.674698,-11.69908 -8.019339,-7.77537 5.201675,-12.65659 c 2.860932,-6.96114 5.201684,-12.81234 5.201684,-13.0027 0,-0.19034 -8.893788,2.28034 -19.763976,5.49041 -10.870186,3.21005 -19.938457,5.83647 -20.151715,5.83647 -0.213256,0 -0.387739,-0.60017 -0.387739,-1.33373 0,-0.84183 4.28783,-2.53722 11.62599,-4.59685 6.394293,-1.79471 16.017605,-4.60523 21.385144,-6.24559 l 9.759144,-2.98245 -3.222269,-1.30594 c -4.791468,-1.94191 -6.967119,-5.82296 -6.925069,-12.35334 0.04217,-6.55117 1.900088,-10.35034 7.613813,-15.56913 5.653228,-5.16355 7.300626,-8.94884 7.300626,-16.77497 0,-3.718033 0.448876,-6.57316 1.033421,-6.57316 1.619197,0 1.266012,14.61257 -0.42854,17.73033 -0.804073,1.47941 -3.17003,4.25869 -5.257665,6.1762 -5.138098,4.71936 -7.748271,9.93298 -7.748271,15.47658 0,3.75471 0.554429,5.13318 3.020772,7.51047 3.760145,3.62437 5.527337,3.6614 8.227935,0.1724 2.898977,-3.7453 2.730328,-1.46071 -0.284873,3.85895 -1.358855,2.39741 -4.889652,10.25195 -7.84623,17.45456 l -5.375589,13.09565 7.32952,7.29256 c 6.934433,6.89946 8.37405,8.85063 6.530209,8.85063 -0.439617,0 -4.408016,-3.49892 -8.818658,-7.77539 z m 60.329218,-1.6291 c -0.66339,-1.6114 -1.04734,-4.07675 -0.85321,-5.47857 0.30228,-2.18281 0.54067,-1.93027 1.66021,1.7587 1.54666,5.09626 0.92995,7.93893 -0.807,3.71987 z m -8.23797,-5.28806 c 0.0748,-4.88145 0.32971,-6.04139 0.93041,-4.23345 1.20502,3.62674 1.20502,10.95716 0,10.95716 -0.59706,0 -0.98992,-2.83911 -0.93041,-6.72371 z m -7.77327,2.19542 c -0.36318,-1.39484 -0.38614,-2.9637 -0.0511,-3.48637 0.33513,-0.52265 -0.3468,-0.95029 -1.5154,-0.95029 -2.69439,0 -16.936111,-12.9438 -20.263848,-18.4171 -1.364422,-2.24414 -3.349583,-7.62927 -4.411465,-11.96697 -1.781031,-7.27534 -2.166691,-7.94567 -4.974945,-8.64709 -4.121498,-1.02941 -8.46534,-5.61474 -9.297213,-9.81406 -0.782693,-3.95096 0.02843,-3.57903 2.60201,1.19319 1.178617,2.18552 3.571173,4.17891 6.980086,5.81559 l 5.186785,2.49026 2.181702,8.75528 c 2.606107,10.45848 6.586065,16.25182 16.675778,24.27379 l 6.78244,5.39245 1.39025,-4.02015 c 0.76465,-2.21108 1.87079,-4.02014 2.45808,-4.02014 0.63529,0 0.77138,0.90787 0.33599,2.24123 -0.40253,1.23268 -0.9777,4.81867 -1.27817,7.96885 -0.58001,6.08101 -1.7126,7.37152 -2.80103,3.19153 z m 28.33869,-7.00029 c 0,-0.31429 2.47987,-2.75605 5.51084,-5.42615 8.5695,-7.54924 11.87754,-14.49074 13.12699,-27.54536 0.77768,-8.12544 1.44662,-11.02931 2.71354,-11.77988 4.1343,-2.44922 6.64856,-5.27163 7.98614,-8.96494 1.13392,-3.13097 1.60134,-3.61055 2.18223,-2.239 1.54871,3.65674 -3.00458,11.33911 -7.59477,12.81392 -0.9124,0.29315 -1.85672,4.222 -2.81093,11.69496 -1.69542,13.27796 -4.14723,18.43548 -12.66852,26.64909 -4.8226,4.64845 -8.44552,6.7064 -8.44552,4.79736 z m -48.617077,-4.02193 c -0.625648,-1.5826 -1.36958,-4.22219 -1.6532,-5.86577 -0.489972,-2.83946 -0.435409,-2.89286 1.09547,-1.07206 1.748531,2.07965 3.296955,8.27141 2.307101,9.22551 -0.336519,0.32436 -1.123738,-0.70509 -1.749371,-2.28768 z m 26.140157,-8.01962 c -3.13842,-1.22065 -0.77864,-2.04162 5.16711,-1.79764 7.81726,0.32076 8.03642,0.37978 5.42546,1.46124 -2.25946,0.93586 -8.53857,1.13528 -10.59257,0.3364 z m -13.69283,-1.65322 c 0,-3.41568 4.8797,-4.98497 18.35461,-5.90283 13.83,-0.94203 17.81514,-0.56388 17.81514,1.69051 0,1.1034 -0.7007,1.21195 -3.25885,0.50477 -1.94677,-0.53817 -5.9343,-0.53565 -9.90411,0.006 -3.65491,0.4989 -7.22524,0.69259 -7.9341,0.4304 -2.02894,-0.75047 -11.23016,1.54464 -13.24751,3.30438 -1.67378,1.46032 -1.82518,1.45755 -1.82518,-0.0332 z m 37.76491,-10.16335 c -0.97346,-2.45697 -3.85561,-7.19809 -6.40475,-10.5358 -5.51263,-7.21799 -4.99409,-9.2709 0.72886,-2.88562 4.1478,4.62782 6.77377,9.10255 8.24655,14.05244 1.39669,4.69416 -0.66087,4.18909 -2.57066,-0.63102 z m -46.468204,0.0249 c -0.439776,-1.0957 -1.493893,-3.78519 -2.342504,-5.97663 -0.848613,-2.19142 -3.551138,-5.89366 -6.005632,-8.22716 -4.541896,-4.31798 -7.750678,-11.06456 -7.750678,-16.29601 0,-2.40746 1.946736,-5.29728 2.140502,-3.17749 0.854881,9.35189 2.371573,12.71465 8.699995,19.28929 4.602383,4.78147 7.150866,10.34648 6.467006,14.12174 -0.391562,2.16159 -0.443438,2.17301 -1.208689,0.26632 z m 10.129164,-1.64238 c 0.89345,-4.30587 6.02332,-14.04356 7.67449,-14.56795 1.00457,-0.31903 0.9037,0.55249 -0.39445,3.40837 -0.95927,2.11036 -2.67868,6.19032 -3.82093,9.06658 -2.28941,5.765 -4.49833,7.10154 -3.45911,2.093 z m 45.25887,-6.5673 c 0.37301,-4.97048 1.20364,-7.11228 4.85092,-12.5082 5.3324,-7.88894 6.44601,-14.32366 3.92637,-22.68739 -1.82003,-6.041366 -2.50525,-12.453783 -1.4405,-13.48009 0.82558,-0.795755 0.85496,-0.706049 3.83322,11.69976 2.85517,11.89304 2.0099,17.2269 -4.09643,25.84964 -2.82245,3.9856 -4.27517,7.28567 -4.7609,10.81506 -1.02117,7.4199 -2.86474,7.66799 -2.31268,0.31122 z m -30.81931,3.73387 c -1.22069,-0.47472 -2.52701,-1.34282 -2.9029,-1.92906 -0.3759,-0.58621 -1.58609,-1.06586 -2.68931,-1.06586 -1.10321,0 -2.00585,-0.67237 -2.00585,-1.49417 0,-2.07782 2.33297,-1.86458 5.4491,0.49806 3.50058,2.65412 6.0857,2.51136 9.0188,-0.49806 1.33493,-1.36963 3.50866,-2.49026 4.83053,-2.49026 2.96126,0 3.15865,1.62692 0.30337,2.50043 -1.15502,0.35334 -3.22657,1.72831 -4.60343,3.05544 -2.6634,2.56723 -3.86512,2.79841 -7.40031,1.42353 z M 59.333179,132.47563 c -0.950488,-0.53458 -2.694387,-2.47892 -3.87533,-4.32073 -3.107115,-4.84588 -2.828826,-11.12526 0.786641,-17.75019 l 2.93381,-5.37588 -4.609297,-3.86483 c -6.062947,-5.083665 -8.483695,-9.09052 -8.488418,-14.050101 -0.0032,-2.95061 0.644989,-4.647365 2.37102,-6.210335 3.704164,-3.354225 7.955525,-3.674991 16.305796,-1.23026 4.161267,1.218308 7.818142,1.796517 8.317564,1.315129 C 74.9072,79.222348 75.16938,68.1086 73.610142,58.302231 72.73903,52.823652 70.309012,42.738088 68.210113,35.889863 66.111214,29.041639 64.183419,22.491673 63.926117,21.334384 62.794366,16.243903 75.366338,8.1645346 90.050224,4.5457485 115.99544,-1.8483497 153.2312,2.861906 164.78626,13.999718 c 3.11609,3.003585 3.39268,3.728181 2.81727,7.380797 -4.18033,26.536371 -4.78652,40.558805 -2.12662,49.192241 0.8746,2.838731 1.74035,5.16132 1.92391,5.16132 0.18355,0 3.4106,-1.344743 7.17122,-2.988316 8.56449,-3.743095 11.39683,-3.771115 15.15373,-0.149874 6.10176,5.881434 5.01016,14.529071 -2.90997,23.05254 -4.47273,4.813464 -5.43312,5.381144 -8.94141,5.285294 -4.71265,-0.12876 -9.20251,-3.08071 -9.69407,-6.373573 l -0.35684,-2.390328 2.49028,2.241231 c 1.36965,1.232684 3.05796,2.24124 3.75179,2.24124 2.30812,0 6.11601,-3.0389 8.91331,-7.113268 1.5205,-2.214679 2.99468,-3.804874 3.27595,-3.533767 0.93934,0.905434 -3.67298,8.439337 -6.46057,10.552884 -2.08116,1.577923 -2.32583,2.086361 -1.00401,2.086361 1.9077,0 6.91411,-4.735516 10.00436,-9.463001 4.33491,-6.631611 1.12729,-16.435739 -5.37732,-16.435739 -1.68009,0 -5.94796,1.408215 -9.48414,3.129355 -9.27024,4.512058 -35.04133,12.461816 -44.48241,13.721753 -19.87674,2.652587 -42.072722,0.247606 -64.001464,-6.93468 -7.775658,-2.546753 -12.174469,-2.493401 -15.155764,0.183812 -1.880993,1.689126 -2.25539,2.832893 -1.804333,5.512052 0.668438,3.970403 5.417773,10.071528 9.722573,12.489868 3.010883,1.69144 3.0541,1.68129 5.298753,-1.245133 1.244714,-1.62277 2.94675,-2.950497 3.782312,-2.950497 1.898684,0 1.980118,1.628056 0.134552,2.689792 -2.279294,1.311278 -9.956343,13.437658 -11.100826,17.534468 -1.281204,4.58623 0.0523,9.28162 3.882057,13.66862 2.614277,2.99471 2.289638,3.7106 -0.875401,1.93046 z M 134.10832,86.172839 c 7.33243,-1.468923 25.39481,-6.826944 28.94784,-8.587073 1.54917,-0.767439 1.59401,-1.244045 0.38559,-4.099332 -0.75206,-1.777012 -1.68566,-5.360112 -2.07465,-7.962438 -0.74781,-5.002711 -1.56073,-5.699725 -3.72117,-3.190556 -1.10315,1.28124 -0.84154,2.519489 1.55241,7.347353 3.94395,7.953732 2.71682,10.08249 -1.35254,2.346297 -4.04283,-7.685771 -4.06469,-9.408615 -0.15958,-12.575891 3.59407,-2.915012 4.00706,-6.08967 0.99436,-7.643804 -4.03745,-2.082747 -17.79099,-3.96427 -28.97799,-3.96427 h -11.26708 l 3.31241,6.474685 3.31242,6.474684 h 7.23165 7.23166 l -5.02455,4.917066 -5.02457,4.917064 1.70479,5.856414 c 2.50404,8.602098 2.41989,8.700194 -4.44022,5.175833 l -6.145,-3.156986 -5.90207,3.558467 c -3.24615,1.957157 -6.23387,3.360819 -6.63939,3.119243 -0.4055,-0.241565 -0.0736,-3.208066 0.73744,-6.592215 0.81111,-3.384148 1.07063,-6.419123 0.57673,-6.74439 -5.28523,-3.480582 -10.585604,-7.543816 -10.585604,-8.114853 0,-0.993365 3.962854,-1.909783 8.328214,-1.92593 4.7627,-0.01763 6.54483,-1.520744 8.11079,-6.840992 0.70212,-2.385424 1.5516,-5.027953 1.88774,-5.872291 0.53138,-1.334772 -0.3719,-1.441784 -6.92004,-0.819845 -13.159905,1.249923 -34.141973,7.590632 -34.141973,10.31758 0,0.490991 1.910734,2.771555 4.246057,5.067916 3.708974,3.64708 4.165464,4.58064 3.608837,7.380283 -0.350482,1.762789 -0.927765,5.120412 -1.282869,7.461379 -1.029582,6.787372 -2.849342,6.479476 -2.175368,-0.368061 0.318342,-3.234255 0.871706,-6.583291 1.229705,-7.442302 0.376424,-0.903219 -0.345796,-2.787063 -1.712661,-4.467353 l -2.363569,-2.905511 -0.603528,9.447881 c -0.331945,5.196333 -0.311154,9.781684 0.04619,10.189679 0.357348,0.407995 4.814301,1.595841 9.904322,2.63965 11.993511,2.459524 36.297807,2.759751 47.165257,0.582619 z m -16.15105,-9.409278 c 1.79723,-1.07195 2.79256,-0.93879 6.45889,0.864102 4.76328,2.342291 4.81151,2.293394 3.21233,-3.258023 -1.04349,-3.622377 -0.91857,-4.045492 2.0726,-7.020162 1.75067,-1.741002 3.18302,-3.480303 3.18302,-3.865108 0,-0.384815 -2.26591,-0.699664 -5.03535,-0.699664 -4.99921,0 -5.0502,-0.03297 -7.09971,-4.596728 -2.25497,-5.021207 -2.58847,-4.916617 -4.33478,1.359385 -1.06876,3.840884 -1.48574,4.239944 -4.49678,4.303464 -1.82533,0.03855 -4.20741,0.405854 -5.2935,0.816319 -1.73981,0.657529 -1.46709,1.093584 2.29252,3.665389 2.528,1.729318 4.10142,3.528055 3.86036,4.413225 -0.22379,0.821786 -0.73102,3.03844 -1.12715,4.9259 -0.7183,3.42234 -0.71356,3.42753 1.73133,1.895429 1.34838,-0.844966 3.40769,-2.106553 4.57622,-2.803528 z M 84.830019,51.457235 c 11.467025,-4.577424 22.026591,-6.108009 41.853561,-6.066602 17.11836,0.03576 24.07433,0.889334 32.23139,3.955187 1.37874,0.518213 1.85119,-0.04164 2.24879,-2.664563 0.27684,-1.826329 1.40083,-8.923695 2.49772,-15.77192 l 1.99438,-12.451318 -2.17633,-2.339837 C 160.46301,12.875036 153.07738,9.4251139 143.53797,6.8032291 136.65439,4.9112892 132.88427,4.5797824 117.8995,4.5488314 97.355831,4.5063971 89.013604,5.9786999 77.063319,11.755932 c -11.319177,5.472126 -11.530883,6.11954 -6.950905,21.256505 2.053616,6.787236 4.057325,14.133414 4.452702,16.324845 0.885675,4.909027 1.362454,5.75496 2.877128,5.104742 0.652987,-0.280314 3.977479,-1.623473 7.387775,-2.984789 z m 36.967591,79.311655 c -0.91921,-3.18062 -0.81974,-23.96843 0.11901,-24.87328 1.23677,-1.19213 1.44419,0.37561 1.84115,13.91613 0.38524,13.14153 -0.27012,16.805 -1.96016,10.95715 z m -15.94048,-4.71778 c -0.2841,-0.27384 1.50164,-2.58682 3.96831,-5.13996 5.01827,-5.1942 6.73386,-5.39093 3.17312,-0.36385 -2.42442,3.4228 -6.24533,6.36754 -7.14143,5.50381 z m -12.036347,-1.70709 c -1.425784,-1.37429 -1.659438,-3.7852 -0.366853,-3.7852 1.000379,0 4.293855,3.3073 4.293855,4.31188 0,1.10324 -2.597448,0.75488 -3.927002,-0.52668 z m 42.440037,-1.77656 c -3.35104,-1.96432 -6.09299,-5.69911 -4.97511,-6.77663 0.34974,-0.33711 2.57357,1.25476 4.94181,3.53751 4.85655,4.68117 4.87087,6.07479 0.0332,3.23912 z m 41.23265,1.03952 c 0.18945,-0.51494 1.94453,-1.97175 3.90018,-3.23734 1.95563,-1.2656 4.71434,-4.47127 6.13043,-7.12372 2.29875,-4.30574 2.45202,-5.26569 1.43008,-8.9562 -0.62956,-2.27346 -0.93905,-4.331733 -0.68776,-4.573952 1.10049,-1.06075 2.76441,2.098532 3.23792,6.147832 0.761,6.50774 -3.67322,13.97857 -10.25645,17.28012 -3.26432,1.6371 -4.23015,1.75628 -3.7544,0.46326 z M 58.510638,121.99433 c -0.01809,-0.5801 0.649909,-1.92485 1.484407,-2.98831 0.834498,-1.06346 1.532056,-1.45893 1.550132,-0.87883 0.01808,0.58012 -0.649909,1.92486 -1.484407,2.98832 -0.834488,1.06346 -1.532047,1.45894 -1.550132,0.87882 z m 42.337412,-4.1344 c -0.852579,-0.30215 -2.355229,-1.22514 -3.339237,-2.05104 -1.398906,-1.17415 -2.111337,-1.24388 -3.266608,-0.3197 -0.990796,0.79259 -1.694896,0.84293 -2.137391,0.15281 -1.109991,-1.73118 5.809291,-5.0365 10.551726,-5.04052 2.41561,-0.002 4.39203,0.44453 4.39203,0.99239 0,0.54786 -1.66639,0.9961 -3.70309,0.9961 -2.5097,0 -3.560382,0.40129 -3.26026,1.24513 0.48258,1.35687 5.36492,1.53909 8.25514,0.30811 1.14127,-0.4861 1.80848,-0.34472 1.80848,0.38323 0,0.92101 -6.30905,4.27173 -7.45911,3.96153 -0.16035,-0.0432 -0.98911,-0.32588 -1.84168,-0.62804 z m 34.70586,-3.91837 c -0.85118,-2.13802 0.13312,-3.03274 1.6878,-1.5342 1.523,1.46801 6.65201,1.54683 7.56923,0.11634 0.37466,-0.58431 -0.1792,-1.73649 -1.23078,-2.5604 -1.76078,-1.37958 -1.59542,-1.45646 2.09154,-0.97241 4.19621,0.55091 8.24594,3.21991 7.24775,4.77669 -0.33601,0.52405 -1.18515,0.43073 -1.99809,-0.21958 -1.07323,-0.85854 -1.9776,-0.75023 -3.7549,0.44967 -3.18259,2.1487 -10.74936,2.11212 -11.61255,-0.0561 z m 36.97131,-0.27847 c -1.78522,-1.04927 -3.57568,-2.42214 -3.97881,-3.05087 -1.38477,-2.1597 0.40135,-2.2317 3.17594,-0.12801 3.03595,2.30184 8.60746,2.79179 10.54207,0.92704 0.67259,-0.64831 1.57942,-0.83384 2.01517,-0.41231 1.13168,1.09473 -3.66545,4.58006 -6.29778,4.57564 -1.2159,-0.002 -3.67136,-0.86222 -5.45659,-1.91149 z m -84.07823,-2.63276 c 0,-1.20761 2.486625,-4.97585 4.044133,-6.12849 2.522411,-1.86672 6.278951,-1.4942 12.334887,1.22318 6.27854,2.81729 10.2798,3.17126 11.14964,0.98638 0.92425,-2.3216 2.62326,-1.75851 2.25408,0.74708 -0.46364,3.14664 -6.99771,3.51438 -14.15152,0.79643 -7.075387,-2.68815 -9.869304,-2.58661 -12.346325,0.4487 -1.930222,2.36528 -3.284895,3.15984 -3.284895,1.92672 z m 38.92554,-2.09274 c -1.07203,-1.03333 -0.81003,-4.31645 0.34447,-4.31645 0.56838,0 1.03342,0.44824 1.03342,0.99611 0,1.75035 3.43649,1.07683 10.16865,-1.99301 3.60341,-1.64314 7.84232,-2.98753 9.41977,-2.98753 3.23373,0 8.31395,3.39186 8.31395,5.55087 0,1.99445 -0.92442,1.77231 -3.02371,-0.72658 -2.46225,-2.93096 -6.39611,-2.63948 -14.54857,1.07796 -6.53389,2.9794 -10.3041,3.75181 -11.70798,2.39863 z M 68.842277,108.3479 c -0.01663,-0.41563 1.364829,-2.61206 3.069975,-4.88096 1.812083,-2.41117 3.100264,-3.44882 3.100264,-2.49735 0,1.5823 -6.109711,8.88825 -6.170239,7.37831 z M 89.48041,95.016874 c -8.931729,-1.665638 -31.047308,-8.069898 -32.501095,-9.411712 -1.813542,-1.673866 2.238669,-0.956541 14.09785,2.495599 14.02216,4.081789 20.76092,5.333448 33.253685,6.176626 21.96384,1.482399 54.93299,-5.121435 70.40658,-14.102694 5.95972,-3.459164 7.75248,-4.083225 7.74905,-2.697433 -0.002,0.855177 -6.75679,5.030223 -13.06601,8.076055 -6.67448,3.222183 -24.5775,7.896927 -36.66899,9.574824 -13.48691,1.871545 -32.906365,1.821607 -43.27107,-0.111265 z"
       id="path1-8" />
    <path
       style="display:inline;fill:#00d0d0;fill-opacity:0.994718;stroke:#00d0ce;stroke-width:2.87313;stroke-dasharray:none;stroke-opacity:0.996078"
       d="m 120.45808,333.24497 c 0.002,-0.41132 0.93231,-5.36321 2.06799,-11.00421 2.98996,-14.8514 2.80803,-32.70803 -0.51573,-50.62252 -2.61326,-14.08487 -3.70189,-39.33676 -1.69589,-39.33676 0.49141,0 1.16027,6.61871 1.4863,14.70826 0.38271,9.49579 1.52106,19.3023 3.21213,27.67147 2.82296,13.97097 3.43548,28.38492 1.65263,38.88967 -1.82057,10.72693 -4.33007,20.44198 -5.28035,20.44198 -0.51164,0 -0.92881,-0.33656 -0.92708,-0.74789 z m 64.76833,-10.96885 c -1.62745,-9.49536 -0.7417,-16.4322 3.59698,-28.17008 12.24065,-33.11588 23.61809,-72.03494 26.26653,-89.85046 l 0.6827,-4.59237 -5.00647,0.79353 c -5.94415,0.94218 -21.23624,1.15746 -23.47105,0.3304 -1.30343,-0.48236 -1.04152,-1.41465 1.52942,-5.44413 1.70619,-2.67419 5.19205,-7.10381 7.74636,-9.84362 l 4.64419,-4.98147 -7.48671,-10.76426 c -4.11772,-5.92033 -9.49303,-13.39377 -11.94517,-16.60766 -2.45213,-3.21386 -4.45842,-6.43459 -4.45842,-7.15711 0,-0.72252 1.16325,-2.19609 2.585,-3.27461 3.90109,-2.95934 3.36192,-6.36435 -1.75931,-11.11001 -4.65949,-4.31779 -4.33789,-5.1716 0.80805,-2.14536 2.96208,1.74192 10.23405,8.80543 2.31001,15.03026 -1.89823,1.49117 -1.87054,1.62972 0.92729,4.64205 2.85887,3.07803 6.3987,4.25744 31.01669,10.3342 4.40622,1.08764 1.20726,1.97036 3.97502,3.01411 10.10869,3.81207 -7.75292,-1.56041 -15.24967,-3.46757 -7.49678,-1.90715 -13.81815,-3.28661 -14.0475,-3.06543 -0.22934,0.22117 3.37446,5.85611 8.00845,12.52209 9.21857,13.26083 9.01137,11.87287 2.73923,18.34991 -1.64209,1.69575 -4.1986,4.65373 -5.68109,6.57328 -1.48251,1.91957 -3.12162,3.78537 -3.64247,4.14628 -1.93968,1.34392 10.54387,1.94587 18.98123,0.91527 4.80701,-0.58717 9.11071,-0.7101 9.56377,-0.27318 0.89886,0.86684 -3.55709,22.60415 -8.52354,41.58008 -1.72249,6.58133 -7.39609,24.08166 -12.60801,38.88965 -8.28738,23.54583 -9.48275,27.79933 -9.52821,33.90379 -0.0286,3.83911 0.28537,8.43855 0.69767,10.22099 0.5569,2.4075 0.39228,3.24081 -0.64019,3.24081 -0.8028,0 -1.66057,-1.57951 -2.03078,-3.73938 z m -66.83946,-1.63349 c 0,-5.17455 -5.50461,-20.22885 -11.89037,-32.51847 -6.721685,-12.93608 -7.508817,-14.95869 -5.82149,-14.95869 1.49479,0 14.33284,25.92289 16.5436,33.40521 2.69194,9.11086 3.70298,16.45331 2.2656,16.45331 -0.60355,0 -1.09734,-1.07161 -1.09734,-2.38136 z m -92.542715,-3.58209 c -2.460207,1.42971 -7.102838,-0.90976 -9.465215,-1.9442 -6.201525,-2.71559 -8.9649841,-7.97232 -12.3010859,-23.39956 -3.36301461,-15.55169 -3.23493849,-26.01889 0.3908797,-31.94534 1.3953944,-2.28075 2.2464801,-5.34632 2.2464801,-8.09166 0,-2.46282 1.2209828,-7.36111 2.757594,-11.06279 2.4904961,-5.99957 2.6407241,-7.06441 1.5509951,-10.99368 -1.9005222,-6.85277 -1.5230323,-8.78404 2.44308,-12.4991 l 3.649678,-3.41869 -2.737563,-5.76667 c -3.186593,-6.71251 -3.099369,-12.76961 0.278713,-19.35415 1.557773,-3.03641 1.948452,-5.35545 1.594887,-9.46714 -0.796865,-9.26691 4.166034,-18.63237 9.87356,-18.63237 4.097675,0 11.764525,8.33925 16.691009,18.15486 6.461455,12.8739 12.64637,37.68669 9.393906,37.68669 -0.568698,0 -1.033997,-0.84338 -1.033997,-1.87419 0,-3.45447 -6.383996,-26.38228 -8.832596,-31.7218 -5.363353,-11.69557 -13.684559,-21.03934 -17.484499,-19.6331 -2.096039,0.77568 -5.330281,6.74833 -6.269911,11.5786 -1.159414,5.96011 0.949212,9.91824 8.925919,16.75504 7.368381,6.31541 16.156156,16.51074 15.105016,17.52446 -0.315669,0.30443 -5.843451,-4.69232 -12.283961,-11.10388 l -11.710019,-11.65738 -1.792804,3.84796 c -2.293442,4.9225 -2.342408,13.24878 -0.104528,17.7745 0.958376,1.93817 2.121624,3.52394 2.584991,3.52394 1.999452,0 0.54057,2.87107 -3.293498,6.48161 -4.621465,4.35201 -4.816073,5.19615 -2.529221,10.97093 1.556566,3.93066 1.507415,4.31727 -1.573279,12.37498 -2.300335,6.01666 -3.0016039,9.23486 -2.5350023,11.63347 0.4722118,2.42748 0.1010731,4.0635 -1.3851877,6.10602 -3.5224248,4.84079 -4.7092784,10.04515 -4.0284556,17.66478 0.7386561,8.26691 4.0875165,23.59613 6.2348416,28.53967 5.365439,13.36909 19.811541,9.52354 15.639273,11.94819 z m 150.107005,-8.74482 c -7.12198,-22.03779 -9.07592,-47.30135 -7.24954,-93.73404 0.37213,-9.46065 1.07967,-17.20117 1.57233,-17.20117 0.49268,0 0.8176,16.04196 0.72209,35.64885 -0.13821,28.37457 0.17993,38.24558 1.55912,48.37462 1.49783,11.00042 5.16133,27.2934 7.39644,32.89477 0.39465,0.989 0.2199,1.74505 -0.40329,1.74505 -0.60481,0 -2.22353,-3.47764 -3.59715,-7.72808 z M 52.043188,297.04759 c -5.393734,-5.46804 -10.690843,-16.37862 -12.312816,-25.36094 -1.391881,-7.70811 -0.740372,-23.11339 1.11921,-26.4643 1.879477,-3.38675 2.29101,-1.65616 1.092719,4.59513 -3.226382,16.83149 0.597675,32.10613 11.309802,45.17533 5.374129,6.55666 4.573718,7.9171 -1.208915,2.05478 z m 25.278698,-9.88958 c -5.947809,-3.49737 -12.764942,-20.48237 -14.96099,-37.2755 -0.981085,-7.50232 -0.920058,-10.57859 0.343144,-17.29781 1.001209,-5.32565 1.152141,-7.95434 0.433263,-7.54594 -7.14293,4.05799 -38.781699,33.80535 -44.020528,41.38893 -1.418183,2.05292 -3.18644,3.73565 -3.929466,3.73939 -3.846162,0.0194 10.500564,-16.57111 26.331095,-30.4492 14.201898,-12.45033 29.536961,-24.86597 30.727685,-24.8779 0.498299,-0.005 2.269856,-4.72068 3.936795,-10.47934 6.448739,-22.27804 14.702046,-32.847 23.850626,-30.54244 1.27957,0.32232 5.5292,3.06332 9.44363,6.09112 5.8959,4.56045 7.80891,5.50506 11.14867,5.50506 5.35688,0 10.37788,2.127 12.54274,5.31332 2.0345,2.99444 2.33957,9.68587 0.52155,11.43917 -2.06777,1.99412 -5.82713,1.37672 -7.61186,-1.25013 -1.08572,-1.59799 -3.64175,-3.00161 -7.36881,-4.04651 -6.60745,-1.8524 -10.66244,-5.26873 -10.66244,-8.9831 0,-3.02348 -1.45645,-6.03883 -4.44546,-9.2036 -3.42474,-3.62614 -9.460307,-3.10566 -13.648572,1.17705 -4.317994,4.41533 -9.641789,17.43572 -14.031869,34.31766 l -3.460607,13.30768 1.665603,7.76815 c 0.916079,4.2725 3.803909,12.50406 6.417398,18.29238 3.930104,8.70434 4.577746,10.96569 3.745277,13.07726 -0.553585,1.40417 -0.622549,2.55306 -0.153253,2.55306 1.817891,0 9.335811,-6.01113 11.080752,-8.85987 1.902688,-3.10628 3.907824,-3.34324 2.80968,-0.33204 -1.510794,4.14273 -5.85481,8.13314 -12.544378,11.52321 -3.963245,2.00843 -7.71948,3.65171 -8.347191,3.65171 -1.960843,0 -1.260591,-1.72588 1.960701,-4.83244 1.750534,-1.68818 3.10199,-4.0509 3.10199,-5.42311 0,-1.33738 -1.82333,-6.19571 -4.051844,-10.79628 -6.950792,-14.34932 -9.344122,-27.719 -6.314337,-35.27334 l 1.193793,-2.97657 -2.535432,2.2971 c -6.033957,5.46673 -7.993304,27.41112 -3.75425,42.04707 5.085369,17.558 10.065469,25.9396 15.397022,25.91346 2.118825,-0.0104 3.965413,-1.72071 9.211975,-8.5322 7.531203,-9.77761 8.876202,-13.42847 8.152531,-22.12935 -0.497714,-5.98436 0.405465,-8.94134 1.721131,-5.6349 1.24291,3.12363 0.61178,15.4643 -0.97891,19.14028 -0.882359,2.03905 -3.576893,6.17535 -5.987863,9.1918 -2.410964,3.01643 -5.189509,6.71843 -6.174538,8.22665 -2.175513,3.33101 -5.950567,3.60484 -10.754453,0.7801 z m 55.047704,-87.8552 c 0.92625,-2.81439 -0.0345,-6.00818 -2.60895,-8.67312 -1.63351,-1.69092 -3.31551,-2.22468 -7.01949,-2.22751 -3.04243,-0.002 -6.14218,-0.75104 -8.25669,-1.99434 -4.35428,-2.56027 -4.54002,-2.52287 -3.73331,0.75161 0.95772,3.88753 2.94076,5.75509 7.51392,7.07647 5.34094,1.54322 7.35985,1.44842 7.35985,-0.34553 0,-0.82268 0.4653,-1.49577 1.03399,-1.49577 0.56872,0 1.03402,1.30947 1.03402,2.90996 0,5.7502 3.19978,8.48582 4.67666,3.99827 z m 134.5623,79.19631 c -0.30788,-1.56238 -0.85932,-6.43057 -1.22536,-10.81813 -0.55891,-6.69891 -2.43756,-17.88191 -6.28187,-37.39389 -1.28112,-6.50249 1.66495,-1.7266 3.76143,6.0977 2.81198,10.49461 6.74362,42.60394 5.3779,43.92102 -0.74039,0.71401 -1.24557,0.15482 -1.6321,-1.80666 z M 6.7152939,268.3187 c 0,-5.22402 5.5562851,-12.28974 12.2195581,-15.53917 6.142115,-2.99525 5.87675,-1.036 -0.405487,2.99385 -4.714047,3.02386 -6.782861,5.17887 -8.9705794,9.34422 -1.9399283,3.6936 -2.8434917,4.7108 -2.8434917,3.2011 z M 87.367045,255.74546 c 0,-0.39126 2.570597,-4.14798 5.712439,-8.34829 l 5.712439,-7.63691 -3.260916,-0.64827 c -5.025476,-0.99906 -8.03446,-2.90295 -10.385245,-6.57112 -3.179456,-4.96126 -1.801337,-4.87351 3.482034,0.2217 5.991959,5.77855 9.781031,5.97534 19.346314,1.00482 3.65644,-1.90004 6.88583,-3.22536 7.17643,-2.94513 0.91036,0.87796 -2.34353,3.37981 -8.17551,6.28604 -4.43578,2.21048 -6.64043,4.24994 -10.491515,9.70545 -4.361066,6.17792 -9.11647,10.83697 -9.11647,8.93171 z m 156.133505,-3.9784 c 0,-0.25181 2.1107,-4.40252 4.6904,-9.22384 2.57972,-4.8213 5.66085,-11.83106 6.84699,-15.57724 2.30144,-7.26864 2.27763,-7.60542 -1.61516,-22.85458 -1.1188,-4.38259 -9.93319,-21.31349 -0.20949,-5.73373 1.00652,1.61271 6.16611,18.29163 5.48571,23.81007 -0.92789,7.52568 -11.57614,30.03714 -14.20804,30.03714 -0.54473,0 -0.99041,-0.20602 -0.99041,-0.45782 z M 139.29091,240.45424 c -10.76083,-9.78273 -10.87882,-10.11544 -6.96453,-19.64024 2.77023,-6.74085 3.60533,-4.26206 1.17586,3.49011 -0.78978,2.52007 -1.06349,5.37348 -0.62436,6.50876 0.43009,1.11184 3.8686,4.63488 7.64113,7.82904 6.2851,5.32149 9.62494,9.21583 8.68282,10.12439 -0.2049,0.19761 -4.66481,-3.54282 -9.91092,-8.31206 z m -28.14195,-11.23182 c -8.75461,-1.09275 -12.685134,-2.23015 -13.238406,-3.83087 -0.312008,-0.90266 0.186979,-1.10228 1.64207,-0.65693 3.444286,1.05426 13.927566,2.55011 17.800336,2.53995 4.76301,-0.0125 6.23839,-1.03581 6.50268,-4.51027 0.20748,-2.72774 -0.0435,-2.9075 -5.06271,-3.62791 -6.06482,-0.87047 -22.165989,-5.56275 -23.601973,-6.8782 -2.375526,-2.17612 1.005976,-1.83574 10.306843,1.03746 5.52542,1.70691 12.04009,3.36705 14.47702,3.68917 4.15679,0.54946 4.53241,0.39614 6.07443,-2.47962 0.90402,-1.6859 1.64368,-3.47056 1.64368,-3.9659 0,-0.49534 -5.35094,-2.55486 -11.89097,-4.57666 -6.54002,-2.0218 -11.89097,-4.10678 -11.89097,-4.63329 0,-1.26153 -0.65256,-1.38619 10.9883,2.09951 6.45904,1.93406 11.44294,2.87273 13.56914,2.5556 1.84826,-0.27567 3.36048,-0.0806 3.36048,0.43326 0,0.51397 -0.46531,0.93448 -1.03401,0.93448 -0.56869,0 -1.03399,1.4848 -1.03399,3.29952 0,1.81472 -0.68314,4.17053 -1.51812,5.23513 -0.83493,1.06462 -1.53289,3.56866 -1.55098,5.56455 -0.0386,4.24023 -2.58142,7.57619 -6.23688,8.18172 -1.42174,0.23552 -5.60942,0.0506 -9.30597,-0.4107 z m -25.849646,-8.13928 c -2.334246,-2.41627 -3.579269,-5.91077 -2.834021,-7.95441 0.258579,-0.70909 1.200254,0.36898 2.092606,2.39571 0.892356,2.02673 2.587414,4.26611 3.7668,4.97642 1.179384,0.7103 2.144336,1.63224 2.144336,2.04877 0,1.55758 -3.097034,0.67903 -5.169721,-1.46649 z M 82.23344,206.42055 c -1.294452,-2.33257 -1.380384,-4.05423 -0.20235,-4.05423 0.751637,0 3.267959,4.25912 3.267959,5.53133 0,1.23934 -2.12683,0.21453 -3.065609,-1.47711 z m 58.41744,-0.31485 c -3.20595,-4.39863 -3.76361,-8.98443 -2.10754,-17.3306 0.85645,-4.31639 1.55725,-9.10423 1.55736,-10.6397 2.1e-4,-3.40327 -2.43314,-8.24164 -5.98797,-11.90612 -1.45753,-1.50249 -2.40605,-2.96714 -2.1078,-3.25476 1.05638,-1.01876 6.11593,3.73942 8.2342,7.74369 1.79689,3.39673 2.04225,5.13598 1.49893,10.62534 -1.98901,20.09627 -2.01909,19.24749 0.82458,23.2664 1.89827,2.68277 2.23302,3.73937 1.1847,3.73937 -0.80365,0 -2.19708,-1.00963 -3.09646,-2.24362 z m -46.429946,-6.80818 c -3.081671,-2.33771 -6.003255,-6.7046 -3.59656,-5.37576 0.767611,0.42382 2.229952,1.46245 3.249643,2.30807 1.678106,1.39158 1.793137,1.38451 1.212558,-0.0746 -0.3528,-0.88662 -1.274443,-1.84628 -2.048112,-2.13259 -1.397305,-0.51713 -3.58662,-6.51402 -3.597658,-9.85465 -0.01034,-3.12834 1.950907,-1.83559 2.647446,1.74504 0.373409,1.91957 0.838642,3.49011 1.033849,3.49011 0.19521,0 1.51817,-1.12182 2.939917,-2.49292 1.421746,-1.37112 3.433211,-2.49295 4.469933,-2.49295 5.30722,0 8.81648,6.52858 6.45927,12.01672 -0.88809,2.06768 -2.33839,3.20196 -5.00864,3.91724 -4.883507,1.30818 -4.596788,1.34711 -7.761646,-1.05372 z m 10.724056,-6.00635 c 0,-3.5211 -1.62574,-6.87953 -3.33023,-6.87953 -1.819014,0 -5.97993,4.13618 -5.94286,5.90753 0.01809,0.86417 0.599718,2.28373 1.292497,3.15452 3.119413,3.92097 7.980593,2.59155 7.980593,-2.18252 z m -35.473245,-8.68022 -8.023812,-7.78368 5.204578,-12.67012 c 2.86252,-6.96858 5.204581,-12.82605 5.204581,-13.0166 0,-0.19054 -8.898742,2.28277 -19.774983,5.49626 -10.876239,3.2135 -19.949562,5.84273 -20.162937,5.84273 -0.213375,0 -0.387955,-0.60083 -0.387955,-1.33517 0,-0.84272 4.290214,-2.53992 11.632465,-4.60179 6.397854,-1.79661 16.026526,-4.61012 21.397046,-6.25223 l 9.764585,-2.98564 -3.22406,-1.30734 c -4.794143,-1.94398 -6.971002,-5.82919 -6.928931,-12.36655 0.0422,-6.55818 1.901149,-10.36141 7.618054,-15.5858 5.656378,-5.16905 7.304695,-8.9584 7.304695,-16.79288 0,-3.722018 0.449126,-6.580198 1.033996,-6.580198 1.620097,0 1.266718,14.628198 -0.428779,17.749308 -0.804525,1.48098 -3.171793,4.26323 -5.260593,6.18278 -5.14096,4.72441 -7.752588,9.94361 -7.752588,15.49313 0,3.75874 0.554741,5.13867 3.022453,7.5185 3.762245,3.62826 5.530412,3.66532 8.232513,0.1726 2.900593,-3.74931 2.731853,-1.46228 -0.285026,3.86308 -1.359609,2.39995 -4.89238,10.2629 -7.850602,17.47321 l -5.378581,13.10966 7.333604,7.30035 c 6.938293,6.90684 8.378713,8.86009 6.533847,8.86009 -0.439866,0 -4.410473,-3.50266 -8.82357,-7.7837 z m 44.342675,-4.72678 c -0.36341,-1.39634 -0.38638,-2.96688 -0.0511,-3.4901 0.3353,-0.52322 -0.34702,-0.95131 -1.51625,-0.95131 -2.69589,0 -16.945556,-12.95764 -20.275143,-18.43678 -1.36518,-2.24656 -3.351449,-7.63743 -4.413926,-11.97979 -1.782023,-7.28312 -2.167901,-7.95415 -4.977714,-8.65632 -4.123788,-1.03052 -8.47005,-5.62075 -9.302396,-9.82455 -0.783124,-3.9552 0.02842,-3.58286 2.603462,1.19447 1.179274,2.18784 3.573163,4.18336 6.983979,5.8218 l 5.189676,2.49294 2.182911,8.76463 c 2.607561,10.46965 6.589732,16.26919 16.685061,24.29971 l 6.78623,5.39823 1.39102,-4.02445 c 0.76507,-2.21342 1.87182,-4.02442 2.45944,-4.02442 0.63566,0 0.77182,0.90883 0.33618,2.24363 -0.40276,1.23399 -0.97824,4.82382 -1.27887,7.97736 -0.58033,6.08751 -1.71356,7.3794 -2.80259,3.19495 z m 28.35446,-7.00777 c 0,-0.31463 2.48126,-2.75902 5.5139,-5.43197 8.57428,-7.55729 11.88415,-14.50623 13.13431,-27.57481 0.77811,-8.13412 1.4474,-11.0411 2.71505,-11.79245 4.13663,-2.45187 6.65226,-5.27729 7.99057,-8.97455 1.13457,-3.13431 1.60226,-3.61442 2.18348,-2.2414 1.54956,3.66066 -3.00627,11.35124 -7.599,12.82762 -0.91292,0.29347 -1.85777,4.22651 -2.8125,11.70748 -1.69638,13.29214 -4.14955,18.45519 -12.6756,26.67759 -4.82528,4.65341 -8.45021,6.71357 -8.45021,4.80249 z m -22.48943,-12.05443 c -3.14016,-1.22196 -0.77908,-2.04381 5.16996,-1.79957 7.82164,0.32112 8.04089,0.38019 5.42852,1.4628 -2.26074,0.93687 -8.54334,1.13649 -10.59848,0.33677 z m -13.70046,-1.65499 c 0,-3.41934 4.88243,-4.99032 18.36484,-5.90916 13.83769,-0.94302 17.82505,-0.56446 17.82505,1.69233 0,1.10459 -0.7011,1.21324 -3.26066,0.5053 -1.94787,-0.53873 -5.93763,-0.53622 -9.90963,0.006 -3.65696,0.49945 -7.22928,0.69334 -7.93852,0.43087 -2.03008,-0.75128 -11.23642,1.5463 -13.25488,3.30792 -1.67472,1.46186 -1.8262,1.45909 -1.8262,-0.0332 z m 37.78596,-10.17423 c -0.97403,-2.45959 -3.85778,-7.20577 -6.40834,-10.54706 -5.51572,-7.22571 -4.99689,-9.28081 0.72927,-2.88871 4.15012,4.63277 6.77753,9.11229 8.25115,14.06747 1.39747,4.69918 -0.66124,4.19357 -2.57208,-0.6317 z m -46.494108,0.0249 c -0.440017,-1.09688 -1.494726,-3.78924 -2.343812,-5.98301 -0.849077,-2.19379 -3.553116,-5.89996 -6.008967,-8.23596 -4.54443,-4.3226 -7.754999,-11.07641 -7.754999,-16.31347 0,-2.41 1.94782,-5.30291 2.141698,-3.18086 0.855347,9.36188 2.372886,12.72825 8.704828,19.30993 4.604954,4.78656 7.154852,10.35752 6.470615,14.13682 -0.391782,2.16391 -0.44369,2.17535 -1.209363,0.2666 z m 10.134808,-1.64413 c 0.89393,-4.31046 6.02666,-14.05858 7.67877,-14.58353 1.00513,-0.31938 0.9042,0.55308 -0.39468,3.41203 -0.95979,2.11261 -2.68017,6.19694 -3.82305,9.07626 -2.2907,5.77117 -4.50085,7.10914 -3.46104,2.09524 z m 45.28409,-6.57434 c 0.37321,-4.97577 1.20428,-7.11987 4.85361,-12.52154 5.33535,-7.89739 6.44959,-14.33899 3.92854,-22.71165 -1.82101,-6.047844 -2.50663,-12.467116 -1.44129,-13.494527 0.82604,-0.796603 0.85544,-0.706804 3.83536,11.712267 2.85676,11.90577 2.01101,17.24535 -4.09872,25.87729 -2.82403,3.98987 -4.27756,7.29347 -4.76355,10.82663 -1.02176,7.42781 -2.86635,7.67618 -2.31395,0.31153 z m -30.8365,3.73789 c -1.22137,-0.47524 -2.52842,-1.34425 -2.90453,-1.93113 -0.3761,-0.58682 -1.58695,-1.06701 -2.69077,-1.06701 -1.10383,0 -2.00698,-0.67309 -2.00698,-1.49575 0,-2.08004 2.33428,-1.86658 5.45213,0.49859 3.50253,2.65696 6.0891,2.51405 9.02383,-0.49859 1.33567,-1.3711 3.51062,-2.49293 4.83322,-2.49293 2.9629,0 3.1604,1.62866 0.30353,2.5031 -1.15567,0.35372 -3.22836,1.73014 -4.60598,3.05872 -2.6649,2.56998 -3.86729,2.80138 -7.40445,1.42505 z M 59.27101,132.52791 c -0.951013,-0.53515 -2.695884,-2.48156 -3.877488,-4.32533 -3.10884,-4.85107 -2.8304,-11.13717 0.787077,-17.76919 l 2.935449,-5.38161 -4.611864,-3.86897 c -6.066322,-5.089107 -8.488424,-9.100247 -8.493146,-14.06513 -0.0028,-2.953766 0.645349,-4.652336 2.372337,-6.216972 3.70623,-3.357818 7.959962,-3.678922 16.314882,-1.231576 4.163578,1.219607 7.822494,1.79843 8.32219,1.316529 1.83326,-1.767968 2.095585,-12.893608 0.535474,-22.710455 C 72.684326,52.790768 70.252963,42.694416 68.152891,35.838868 66.052822,28.98332 64.123951,22.42635 63.866511,21.267824 62.734128,16.171901 75.313103,8.0838924 90.005165,4.4612364 c 25.959665,-6.4009351 63.216165,-1.685643 74.777655,9.4640796 3.11784,3.006796 3.39458,3.732167 2.81887,7.388691 -4.18267,26.564749 -4.78923,40.602175 -2.12784,49.244844 0.87511,2.841762 1.74133,5.16684 1.92498,5.16684 0.18366,0 3.41252,-1.34618 7.17522,-2.991511 8.56927,-3.747106 11.40319,-3.775148 15.16217,-0.150037 6.10516,5.887724 5.01296,14.544612 -2.91159,23.077186 -4.47523,4.818601 -5.43615,5.386901 -8.94641,5.290951 -4.71527,-0.12891 -9.20762,-3.084012 -9.69945,-6.380392 l -0.35704,-2.392882 2.49166,2.243633 c 1.37042,1.233999 3.05967,2.243634 3.75391,2.243634 2.30937,0 6.11941,-3.042147 8.91826,-7.120879 1.52134,-2.217044 2.99636,-3.808938 3.27776,-3.537541 0.93987,0.906399 -3.675,8.448357 -6.46415,10.564161 -2.08233,1.57961 -2.32714,2.0886 -1.00456,2.0886 1.90873,0 6.91794,-4.740585 10.00992,-9.473121 4.33733,-6.63871 1.12792,-16.453313 -5.38032,-16.453313 -1.68102,0 -5.95127,1.409716 -9.48943,3.1327 -9.27539,4.516877 -35.06084,12.475136 -44.50719,13.736418 -19.8878,2.655427 -42.096143,0.247879 -64.037095,-6.942093 -7.779983,-2.549472 -12.181244,-2.496064 -15.164207,0.184014 -1.882036,1.690932 -2.256645,2.835915 -1.805338,5.517941 0.668817,3.974652 5.420799,10.082298 9.727988,12.50322 3.012559,1.69325 3.055809,1.68309 5.30171,-1.246459 1.245406,-1.624506 2.948391,-2.953648 3.784413,-2.953648 1.899739,0 1.981228,1.629786 0.134634,2.69267 -2.280569,1.312677 -9.96189,13.452037 -11.107013,17.553217 -1.281917,4.59113 0.05236,9.29153 3.884221,13.68323 2.615731,2.99792 2.290914,3.71456 -0.875893,1.93252 z m 74.81678,-46.35229 c 7.33653,-1.470505 25.40896,-6.834254 28.96398,-8.596263 1.55003,-0.768258 0.65964,-1.011162 0.38579,-4.103718 -0.39026,-4.407185 -1.15238,-10.010249 -2.27526,-14.410719 -0.85977,-3.369271 0.30882,-6.181923 -2.64895,-7.576436 C 142.491,43.93441 77.559364,46.73134 76.148962,62.199654 c -0.465049,5.100335 0.791247,10.549664 0.791247,10.549664 -0.332129,5.201889 -0.311326,9.792151 0.04623,10.200581 0.35755,0.40843 4.816979,1.597544 9.909838,2.642474 12.000183,2.462148 36.318023,2.762696 47.191513,0.583247 z m -12.31755,44.64374 c -0.91973,-3.18401 -0.8202,-23.99406 0.11907,-24.89989 1.23748,-1.19339 1.445,0.37603 1.84218,13.93102 0.38546,13.15558 -0.27028,16.82297 -1.96125,10.96887 z m -15.94937,-4.72283 c -0.28425,-0.27415 1.50248,-2.58959 3.97052,-5.14544 5.02107,-5.19977 6.73762,-5.39671 3.1749,-0.36425 -2.42577,3.42646 -6.24883,6.37435 -7.14542,5.50969 z m -12.043044,-1.70892 c -1.426582,-1.37575 -1.660369,-3.78923 -0.367059,-3.78923 1.000939,0 4.296247,3.31082 4.296247,4.31648 0,1.10441 -2.59889,0.75567 -3.929188,-0.52725 z m 42.463674,-1.77845 c -3.35293,-1.9664 -6.09639,-5.70522 -4.97789,-6.78387 0.34993,-0.33748 2.575,1.25609 4.94458,3.54128 4.85923,4.68617 4.87357,6.08128 0.0333,3.24259 z m 41.25561,1.04063 c 0.18954,-0.51549 1.94561,-1.97385 3.90235,-3.2408 1.95672,-1.26696 4.71696,-4.47605 6.13383,-7.13134 2.30005,-4.31035 2.4534,-5.27132 1.43089,-8.96579 -0.62992,-2.27588 -0.93958,-4.336356 -0.68815,-4.578837 1.10112,-1.061881 2.76595,2.100787 3.23973,6.154407 0.76143,6.51472 -3.67527,13.99352 -10.26215,17.2986 -3.26615,1.63885 -4.23252,1.75814 -3.7565,0.46376 z m -76.68811,-5.7532 c -0.853049,-0.30249 -2.356538,-1.22644 -3.341088,-2.05323 -1.39969,-1.1754 -2.112519,-1.24521 -3.268435,-0.32004 -0.991346,0.79342 -1.695835,0.84382 -2.138574,0.15297 -1.110623,-1.73301 5.812521,-5.04189 10.557577,-5.0459 2.41698,-0.002 4.39449,0.44498 4.39449,0.99343 0,0.54847 -1.6673,0.99719 -3.70513,0.99719 -2.51112,0 -3.562383,0.4017 -3.26209,1.24645 0.48285,1.35832 5.36791,1.54073 8.25973,0.30844 1.14192,-0.48661 1.80949,-0.34507 1.80949,0.38364 0,0.92198 -6.31258,4.27629 -7.46328,3.96575 -0.16044,-0.0433 -0.98963,-0.32621 -1.84269,-0.6287 z m 34.72518,-3.92255 c -0.85164,-2.14032 0.13319,-3.036 1.68875,-1.53584 1.52384,1.46957 6.65573,1.5485 7.57345,0.11647 0.37488,-0.58496 -0.1793,-1.73836 -1.23146,-2.56316 -1.76178,-1.38104 -1.59633,-1.45801 2.09269,-0.97344 4.19856,0.55149 8.25052,3.22337 7.2518,4.78181 -0.3362,0.5246 -1.1858,0.43118 -1.9992,-0.21982 -1.07383,-0.85947 -1.97872,-0.75105 -3.75701,0.45016 -3.18435,2.15097 -10.75535,2.11437 -11.61902,-0.0561 z m 36.99192,-0.27877 c -1.78621,-1.05037 -3.5777,-2.42476 -3.98102,-3.05413 -1.38556,-2.16202 0.40155,-2.23409 3.1777,-0.12815 3.03764,2.30429 8.61226,2.79478 10.54794,0.92802 0.67296,-0.64899 1.58029,-0.83473 2.0163,-0.41275 1.13229,1.09591 -3.6675,4.58497 -6.3013,4.58053 -1.21656,-0.002 -3.67341,-0.86315 -5.45962,-1.91352 z m -84.125058,-2.63559 c 0,-1.20891 2.487999,-4.98117 4.046383,-6.13503 2.523818,-1.86872 6.282449,-1.49582 12.341755,1.22449 6.28203,2.8203 10.28555,3.17464 11.15585,0.98743 0.92477,-2.32408 2.62472,-1.76037 2.25534,0.74787 -0.4639,3.14999 -7.00162,3.51813 -14.15941,0.79729 -7.079325,-2.69103 -9.874798,-2.58938 -12.353193,0.44918 -1.931304,2.36779 -3.286725,3.16323 -3.286725,1.92877 z m 38.947218,-2.09497 c -1.07264,-1.03444 -0.8105,-4.32108 0.34467,-4.32108 0.56869,0 1.03399,0.44875 1.03399,0.99719 0,1.75223 3.4384,1.07799 10.17432,-1.99514 3.60541,-1.6449 7.84669,-2.99073 9.42501,-2.99073 3.23553,0 8.31859,3.39547 8.31859,5.55682 0,1.99657 -0.92495,1.77419 -3.0254,-0.72735 -2.46362,-2.93413 -6.39968,-2.64234 -14.5567,1.07911 -6.53752,2.98257 -10.30981,3.7558 -11.71448,2.40118 z M 89.435039,95.029107 c -8.936717,-1.667421 -31.064602,-8.078527 -32.5192,-9.421778 -1.814559,-1.675655 2.239913,-0.957564 14.105699,2.49827 14.029977,4.086141 20.772481,5.339154 33.272202,6.183228 21.97609,1.483989 54.96358,-5.126914 70.4458,-14.117775 5.96303,-3.462866 7.7568,-4.087588 7.75336,-2.700313 -0.002,0.856087 -6.76054,5.035593 -13.07327,8.08469 -6.67822,3.225624 -24.59121,7.905366 -36.68945,9.585059 -13.49442,1.873541 -32.924665,1.823555 -43.295141,-0.111381 z"
       id="path1" />
  </g>
  <g
     id="layer2"
     style="display:inline">
    <path
       d="m 183.1077,4.3288825 c -19.44156,-0.04243 -27.33785,1.429799 -38.64703,7.2070305 -10.71193,5.472126 -10.91068,6.118895 -6.57641,21.25586 1.94344,6.787236 3.83821,14.134743 4.21238,16.326173 0.83817,4.90903 1.28918,5.75373 2.72262,5.10351 0.61794,-0.28031 3.76493,-1.62305 6.99228,-2.98437 10.85184,-4.57743 20.84485,-6.10781 39.60815,-6.06641 16.19999,0.0358 22.78192,0.88923 30.50138,3.95508 1.30478,0.51821 1.75302,-0.0411 2.1293,-2.66406 0.26198,-1.82633 1.32598,-8.923261 2.36402,-15.771486 l 1.88716,-12.451172 -2.05905,-2.339843 c -2.85469,-3.243146 -9.84581,-6.6945215 -18.87344,-9.3164065 -6.51428,-1.891939 -10.08049,-2.222955 -24.26136,-2.253906 z"
       style="display:inline;fill:#101414;fill-opacity:1;stroke:#000000;stroke-width:0.986999;stroke-opacity:0"
       id="path2" />
  </g>
</svg>
