<?xml version="1.0" encoding="UTF-8" standalone="no"?>
<svg
   height="40"
   viewBox="0 -960 960 960"
   width="40"
   fill="#eac452"
   version="1.1"
   id="svg1"
   xmlns="http://www.w3.org/2000/svg"
   xmlns:svg="http://www.w3.org/2000/svg">
  <defs
     id="defs1" />
  <path
     d="m 240.46783,-142.55593 q -51.08004,0 -88.9759,-33.44599 -37.88601,-33.45586 -40.5189,-84.62132 H 72.692591 q -21.792834,0 -37.185872,-15.40094 -15.402899,-15.41081 -15.402899,-37.21483 v -410.10311 q 0,-41.85188 30.657883,-73.21613 30.648022,-31.36425 73.868827,-31.36425 h 460.83462 q 42.8954,0 73.71106,30.83148 30.81566,30.83148 30.81566,73.7489 v 46.37055 h 48.97964 q 24.85961,0 47.09619,10.56657 22.23658,10.56656 36.7224,30.54536 l 108.47112,144.04469 q 3.9444,7.2121 6.90271,15.25295 2.9583,8.03098 2.9583,16.64406 v 146.52107 q 0,21.96188 -15.39304,37.37269 -15.39303,15.40094 -36.5449,15.40094 h -35.49964 q -2.29762,51.30359 -39.97654,84.69038 -37.68878,33.37693 -88.78854,33.37693 -50.97157,0 -88.64063,-33.44599 -37.6592,-33.45586 -40.29209,-84.62132 H 368.1975 q -2.29761,50.31698 -39.47363,84.19708 -37.17601,33.87023 -88.25604,33.87023 z m -0.15778,-80.24078 q 20.79687,0 35.39117,-15.27268 14.5943,-15.27268 14.5943,-35.68559 0,-20.41291 -14.69291,-35.70532 -14.69291,-15.29242 -35.65742,-15.29242 -20.97437,0 -35.76588,15.27268 -14.79152,15.27269 -14.79152,35.68559 0,20.41291 14.85068,35.70533 14.85069,15.29241 36.07158,15.29241 z M 124.63053,-365.20362 h 30.13525 q 15.55082,-18.4101 37.85642,-28.9372 22.30561,-10.5271 46.8398,-10.5271 24.5342,0 47.02717,10.56657 22.49296,10.56656 37.99447,28.89773 h 260.98151 v -358.1385 H 124.63053 Z m 600.18057,142.40691 q 20.79687,0 35.39117,-15.27268 14.59429,-15.27268 14.59429,-35.68559 0,-20.41291 -14.68304,-35.70532 -14.69291,-15.29242 -35.66728,-15.29242 -20.97437,0 -35.76589,15.27268 -14.79151,15.27269 -14.79151,35.68559 0,20.41291 14.85068,35.70533 14.86054,15.29241 36.07158,15.29241 z M 689.99187,-436.23936 H 841.20061 L 738.97151,-571.73015 H 689.99187 Z M 355.7036,-544.10515 Z"
     id="path1"
     style="fill:#93ffff;fill-opacity:1;stroke:#00d0d0;stroke-width:36.503;stroke-dasharray:none;stroke-opacity:1" />
</svg>
